<svg xmlns="http://www.w3.org/2000/svg" xmlns:xlink="http://www.w3.org/1999/xlink" viewBox="0 0 500 423.88"><defs><style>.cls-1{fill:#ebebeb;}.cls-2{fill:#f5f5f5;}.cls-3{fill:#e0e0e0;}.cls-4{fill:#407bff;}.cls-10,.cls-11,.cls-12,.cls-14,.cls-19,.cls-20,.cls-27,.cls-28,.cls-5,.cls-7,.cls-9{fill:#fff;}.cls-5,.cls-6{opacity:0.7;}.cls-13,.cls-14,.cls-16,.cls-17,.cls-19,.cls-20,.cls-24,.cls-28,.cls-29,.cls-5,.cls-6,.cls-8{isolation:isolate;}.cls-16,.cls-20,.cls-24,.cls-9{opacity:0.2;}.cls-10,.cls-13,.cls-14,.cls-17,.cls-23{opacity:0.4;}.cls-11,.cls-19{opacity:0.6;}.cls-12{opacity:0.8;}.cls-15{fill:#e4897b;}.cls-18{fill:#263238;}.cls-21{fill:#de5753;}.cls-22{fill:#ebb376;}.cls-25{fill:#de726f;}.cls-26{fill:none;stroke:#263238;stroke-linecap:round;stroke-linejoin:round;stroke-width:0.5px;}.cls-27,.cls-28,.cls-29{opacity:0.1;}.cls-30{fill:url(#linear-gradient);}</style><linearGradient id="linear-gradient" x1="417.23" y1="24.05" x2="481.31" y2="24.05" gradientUnits="userSpaceOnUse"><stop offset="0" stop-color="#d29c26"/><stop offset="0" stop-color="#e1721b"/><stop offset="0.09" stop-color="#e17324"/><stop offset="0.24" stop-color="#e0763e"/><stop offset="0.43" stop-color="#e07a67"/><stop offset="0.65" stop-color="#de80a1"/><stop offset="0.89" stop-color="#dd87e7"/><stop offset="0.95" stop-color="#dbc32e"/></linearGradient></defs><g id="Background_Complete" data-name="Background Complete"><rect class="cls-1" y="378.72" width="500" height="0.25"/><rect class="cls-1" x="416.78" y="394.82" width="33.12" height="0.25"/><rect class="cls-1" x="322.53" y="397.53" width="8.69" height="0.25"/><rect class="cls-1" x="396.59" y="385.53" width="19.19" height="0.25"/><rect class="cls-1" x="52.46" y="387.21" width="43.19" height="0.25"/><rect class="cls-1" x="104.56" y="387.21" width="6.33" height="0.25"/><rect class="cls-1" x="131.47" y="391.43" width="93.68" height="0.25"/><path class="cls-1" d="M237,337.8H43.91a5.71,5.71,0,0,1-5.7-5.71V60.66A5.71,5.71,0,0,1,43.91,55H237a5.71,5.71,0,0,1,5.71,5.71V332.09A5.71,5.71,0,0,1,237,337.8ZM43.91,55.2a5.46,5.46,0,0,0-5.45,5.46V332.09a5.46,5.46,0,0,0,5.45,5.46H237a5.47,5.47,0,0,0,5.46-5.46V60.66A5.47,5.47,0,0,0,237,55.2Z" transform="translate(0 -3.68)"/><path class="cls-1" d="M453.31,337.8H260.21a5.72,5.72,0,0,1-5.71-5.71V60.66A5.72,5.72,0,0,1,260.21,55h193.1A5.71,5.71,0,0,1,459,60.66V332.09A5.71,5.71,0,0,1,453.31,337.8ZM260.21,55.2a5.47,5.47,0,0,0-5.46,5.46V332.09a5.47,5.47,0,0,0,5.46,5.46h193.1a5.47,5.47,0,0,0,5.46-5.46V60.66a5.47,5.47,0,0,0-5.46-5.46Z" transform="translate(0 -3.68)"/><rect class="cls-1" x="57.38" y="104.03" width="153.25" height="126.32"/><rect class="cls-2" x="67.7" y="116.41" width="19.89" height="19.89"/><rect class="cls-2" x="182.24" y="167.59" width="19.89" height="19.89"/><rect class="cls-2" x="92.33" y="126.89" width="19.89" height="19.89"/><rect class="cls-2" x="159.81" y="173.84" width="19.89" height="19.89"/><rect class="cls-2" x="73.64" y="174.31" width="28.63" height="38.04"/><rect class="cls-2" x="106.33" y="174.59" width="28.63" height="38.04"/><rect class="cls-2" x="163.55" y="117.82" width="28.63" height="38.04"/><rect class="cls-1" x="347.37" y="76.78" width="101.72" height="213.27"/><rect class="cls-3" x="345.02" y="74" width="106.42" height="10.04"/><rect class="cls-3" x="345.02" y="88.15" width="106.42" height="5.02"/><rect class="cls-3" x="345.02" y="95.6" width="106.42" height="5.02"/><rect class="cls-3" x="345.02" y="103.05" width="106.42" height="5.02"/><rect class="cls-3" x="345.02" y="110.5" width="106.42" height="5.02"/><rect class="cls-3" x="345.02" y="117.95" width="106.42" height="5.02"/><rect class="cls-3" x="345.02" y="125.39" width="106.42" height="5.02"/><rect class="cls-3" x="345.02" y="132.84" width="106.42" height="5.02"/><rect class="cls-3" x="345.02" y="140.29" width="106.42" height="5.02"/><rect class="cls-3" x="345.02" y="147.74" width="106.42" height="5.02"/><rect class="cls-3" x="345.02" y="155.19" width="106.42" height="5.02"/><rect class="cls-3" x="345.02" y="162.64" width="106.42" height="5.02"/><rect class="cls-3" x="345.02" y="170.08" width="106.42" height="5.02"/><rect class="cls-3" x="345.02" y="177.53" width="106.42" height="5.02"/><rect class="cls-3" x="345.02" y="184.98" width="106.42" height="5.02"/><rect class="cls-3" x="345.02" y="192.43" width="106.42" height="5.02"/><rect class="cls-3" x="345.02" y="199.88" width="106.42" height="5.02"/><rect class="cls-3" x="345.02" y="207.32" width="106.42" height="5.02"/><rect class="cls-3" x="345.02" y="214.77" width="106.42" height="5.02"/><rect class="cls-3" x="345.02" y="222.22" width="106.42" height="5.02"/><rect class="cls-3" x="345.02" y="229.67" width="106.42" height="5.02"/><rect class="cls-3" x="345.02" y="237.12" width="106.42" height="5.02"/><rect class="cls-3" x="345.02" y="244.57" width="106.42" height="5.02"/><rect class="cls-3" x="345.02" y="252.01" width="106.42" height="5.02"/><rect class="cls-3" x="345.02" y="259.46" width="106.42" height="5.02"/><rect class="cls-3" x="345.02" y="266.91" width="106.42" height="5.02"/><rect class="cls-3" x="345.02" y="274.36" width="106.42" height="5.02"/><rect class="cls-3" x="345.02" y="281.81" width="106.42" height="5.02"/><path class="cls-1" d="M72.77,350.28c-.15-1-3.65-25.17,3.36-33.51A7.58,7.58,0,0,1,82,313.91c14.15-.34,16.09,11,16.11,11.15l-1.67.26c-.07-.41-1.74-10-14.4-9.73a5.93,5.93,0,0,0-4.57,2.27c-6.52,7.76-3,31.93-3,32.17Z" transform="translate(0 -3.68)"/><path class="cls-1" d="M71.91,349.18l-1.68-.05c0-.22.56-22.25-10.3-26.8-10.63-4.46-15.42,4.7-15.62,5.1l-1.51-.76c.06-.11,5.67-11,17.79-5.9C72.51,325.77,71.94,348.23,71.91,349.18Z" transform="translate(0 -3.68)"/><path class="cls-1" d="M72,350.91c0-.35-.1-35.19-6.89-45.38-6.52-9.78-17-5.18-17.49-5l-.7-1.54c.13-.06,12.27-5.42,19.59,5.58,7.08,10.61,7.18,44.86,7.18,46.31Z" transform="translate(0 -3.68)"/><path class="cls-3" d="M84,314.74S77.8,317,79.63,322.4,101,336.63,101,336.63s8.18-7.5.67-19.7S84.14,310.89,84,314.74Z" transform="translate(0 -3.68)"/><path class="cls-3" d="M64.76,303.7s4.39-.47,4-3.15S51.74,291,41.89,302.13c0,0,6.31,10.83,15.43,11S64.76,303.7,64.76,303.7Z" transform="translate(0 -3.68)"/><path class="cls-3" d="M60.26,321.55s3-2.45-.24-3.64-19.3-.85-19.47,15c0,0,18.68,3.1,21-2.95S60.26,321.55,60.26,321.55Z" transform="translate(0 -3.68)"/><polygon class="cls-1" points="87.3 378.96 58.32 378.96 55.19 347.23 90.42 347.23 87.3 378.96"/><rect class="cls-3" x="53.65" y="343.73" width="38.32" height="7"/><path class="cls-3" d="M434.2,353.91s-5.65-12.33.8-24.48,8.33-15,4.21-17.5-6,9.72-6,9.72-3.47-8.4-.6-17.19,4.66-23.11.74-24.64-.74,17.86-4.14,24.47a57,57,0,0,1-3.32-14.42c-.46-7.06.27-18.34-2.82-21.23s-5.07-.89-2,14.69a163.44,163.44,0,0,1,3,28.25s-6.7-20.44-11.2-21-4.5,6-.64,11.77,11.27,16,12.49,21.32c0,0-7.36-15.39-14-10.67s5.77,14,11.28,17.36,9.35,24.4,9.35,24.4Z" transform="translate(0 -3.68)"/><path class="cls-1" d="M429.74,359s5.5-12.41-1.1-24.46-8.51-14.89-4.42-17.44,6.12,9.63,6.12,9.63,3.36-8.45.39-17.19-4.93-23-1-24.64,1,17.85,4.43,24.41a57.22,57.22,0,0,0,3.15-14.47c.38-7.06-.48-18.32,2.57-21.26s5.05-1,2.21,14.66a163.28,163.28,0,0,0-2.68,28.29s6.46-20.54,10.95-21.2,4.57,5.95.79,11.75-11.09,16.19-12.24,21.5c0,0,7.17-15.49,13.84-10.87s-5.59,14.09-11.07,17.53-9.05,24.53-9.05,24.53Z" transform="translate(0 -3.68)"/><polygon class="cls-1" points="455.11 346.44 409.67 346.44 413.34 378.96 451.43 378.96 455.11 346.44"/><path class="cls-3" d="M334.9,349.88l-3-.43c.54-3.74,3.66-10.81,11.66-10.81,9.48,0,14.19,5.47,14.67,10.89l-3,.26c-.36-4.06-4.1-8.15-11.68-8.15C336.21,341.64,335,349.54,334.9,349.88Z" transform="translate(0 -3.68)"/><rect class="cls-1" x="316.44" y="343.56" width="58.39" height="34.86" rx="4.83"/><path class="cls-3" d="M358.26,382.64C317,382.64,315,354.33,315,354l1.68-3.28c.06,1.05,3.31,28.88,41.63,28.88,15.76,0,29.38,0,30.76-3,1.21-2.66-4.71-9.46-14.18-20.37v-4.18c12.07,13.9,18.92,21.38,16.91,25.79C389.65,382.45,380.53,382.64,358.26,382.64Z" transform="translate(0 -3.68)"/></g><g id="Shadow"><ellipse id="_Path_" data-name="&lt;Path&gt;" class="cls-2" cx="250" cy="412.56" rx="193.89" ry="11.32"/></g><g id="Chart"><path class="cls-4" d="M332.72,92.08a5,5,0,0,1,5,5V260.31a5,5,0,0,1-5,5H113.55a5,5,0,0,1-5-5V97a5,5,0,0,1,5-5H332.72m0-1.25H113.55A6.21,6.21,0,0,0,107.34,97V260.31a6.21,6.21,0,0,0,6.21,6.21H332.72a6.21,6.21,0,0,0,6.21-6.21V97a6.21,6.21,0,0,0-6.21-6.21Z" transform="translate(0 -3.68)"/><rect class="cls-5" x="107.34" y="87.15" width="231.59" height="175.69" rx="6.21"/><rect class="cls-4" x="310.22" y="105.37" width="2.87" height="2.39"/><path class="cls-4" d="M313.08,243h-2.86v-4.7h2.86Zm0-9.4h-2.86v-4.7h2.86Zm0-9.39h-2.86v-4.7h2.86Zm0-9.4h-2.86v-4.69h2.86Zm0-9.39h-2.86v-4.7h2.86Zm0-9.4h-2.86v-4.69h2.86Zm0-9.39h-2.86v-4.7h2.86Zm0-9.39h-2.86v-4.7h2.86Zm0-9.4h-2.86v-4.7h2.86Zm0-9.39h-2.86v-4.7h2.86Zm0-9.4h-2.86v-4.69h2.86Zm0-9.39h-2.86v-4.7h2.86Zm0-9.4h-2.86v-4.69h2.86Zm0-9.39h-2.86v-4.7h2.86Z" transform="translate(0 -3.68)"/><rect class="cls-4" x="310.22" y="243.98" width="2.87" height="2.39"/><path class="cls-4" d="M139.74,243h-2.87v-4.7h2.87Z" transform="translate(0 -3.68)"/><rect class="cls-4" x="136.87" y="243.98" width="2.87" height="2.39"/><path class="cls-4" d="M174.41,243h-2.87v-4.7h2.87Zm0-9.4h-2.87v-4.7h2.87Zm0-9.39h-2.87v-4.7h2.87Zm0-9.4h-2.87v-4.69h2.87Z" transform="translate(0 -3.68)"/><rect class="cls-4" x="171.54" y="243.98" width="2.87" height="2.39"/><path class="cls-4" d="M209.08,243h-2.87v-4.7h2.87Zm0-9.4h-2.87v-4.7h2.87Zm0-9.39h-2.87v-4.7h2.87Zm0-9.4h-2.87v-4.69h2.87Zm0-9.39h-2.87v-4.7h2.87Z" transform="translate(0 -3.68)"/><rect class="cls-4" x="206.21" y="243.98" width="2.87" height="2.39"/><path class="cls-4" d="M243.75,243h-2.87v-4.7h2.87Zm0-9.4h-2.87v-4.7h2.87Zm0-9.39h-2.87v-4.7h2.87Zm0-9.4h-2.87v-4.69h2.87Zm0-9.39h-2.87v-4.7h2.87Zm0-9.4h-2.87v-4.69h2.87Zm0-9.39h-2.87v-4.7h2.87Zm0-9.39h-2.87v-4.7h2.87Z" transform="translate(0 -3.68)"/><rect class="cls-4" x="240.88" y="243.98" width="2.87" height="2.39"/><path class="cls-4" d="M278.42,243h-2.87v-4.7h2.87Zm0-9.4h-2.87v-4.7h2.87Zm0-9.39h-2.87v-4.7h2.87Zm0-9.4h-2.87v-4.69h2.87Zm0-9.39h-2.87v-4.7h2.87Zm0-9.4h-2.87v-4.69h2.87Zm0-9.39h-2.87v-4.7h2.87Zm0-9.39h-2.87v-4.7h2.87Zm0-9.4h-2.87v-4.7h2.87Zm0-9.39h-2.87v-4.7h2.87Z" transform="translate(0 -3.68)"/><rect class="cls-4" x="275.55" y="243.98" width="2.87" height="2.39"/><g class="cls-6"><rect class="cls-7" x="310.22" y="105.37" width="2.87" height="2.39"/><path class="cls-7" d="M313.08,243h-2.86v-4.7h2.86Zm0-9.4h-2.86v-4.7h2.86Zm0-9.39h-2.86v-4.7h2.86Zm0-9.4h-2.86v-4.69h2.86Zm0-9.39h-2.86v-4.7h2.86Zm0-9.4h-2.86v-4.69h2.86Zm0-9.39h-2.86v-4.7h2.86Zm0-9.39h-2.86v-4.7h2.86Zm0-9.4h-2.86v-4.7h2.86Zm0-9.39h-2.86v-4.7h2.86Zm0-9.4h-2.86v-4.69h2.86Zm0-9.39h-2.86v-4.7h2.86Zm0-9.4h-2.86v-4.69h2.86Zm0-9.39h-2.86v-4.7h2.86Z" transform="translate(0 -3.68)"/><rect class="cls-7" x="310.22" y="243.98" width="2.87" height="2.39"/><path class="cls-7" d="M139.74,243h-2.87v-4.7h2.87Z" transform="translate(0 -3.68)"/><rect class="cls-7" x="136.87" y="243.98" width="2.87" height="2.39"/><path class="cls-7" d="M174.41,243h-2.87v-4.7h2.87Zm0-9.4h-2.87v-4.7h2.87Zm0-9.39h-2.87v-4.7h2.87Zm0-9.4h-2.87v-4.69h2.87Z" transform="translate(0 -3.68)"/><rect class="cls-7" x="171.54" y="243.98" width="2.87" height="2.39"/><path class="cls-7" d="M209.08,243h-2.87v-4.7h2.87Zm0-9.4h-2.87v-4.7h2.87Zm0-9.39h-2.87v-4.7h2.87Zm0-9.4h-2.87v-4.69h2.87Zm0-9.39h-2.87v-4.7h2.87Z" transform="translate(0 -3.68)"/><rect class="cls-7" x="206.21" y="243.98" width="2.87" height="2.39"/><path class="cls-7" d="M243.75,243h-2.87v-4.7h2.87Zm0-9.4h-2.87v-4.7h2.87Zm0-9.39h-2.87v-4.7h2.87Zm0-9.4h-2.87v-4.69h2.87Zm0-9.39h-2.87v-4.7h2.87Zm0-9.4h-2.87v-4.69h2.87Zm0-9.39h-2.87v-4.7h2.87Zm0-9.39h-2.87v-4.7h2.87Z" transform="translate(0 -3.68)"/><rect class="cls-7" x="240.88" y="243.98" width="2.87" height="2.39"/><path class="cls-7" d="M278.42,243h-2.87v-4.7h2.87Zm0-9.4h-2.87v-4.7h2.87Zm0-9.39h-2.87v-4.7h2.87Zm0-9.4h-2.87v-4.69h2.87Zm0-9.39h-2.87v-4.7h2.87Zm0-9.4h-2.87v-4.69h2.87Zm0-9.39h-2.87v-4.7h2.87Zm0-9.39h-2.87v-4.7h2.87Zm0-9.4h-2.87v-4.7h2.87Zm0-9.39h-2.87v-4.7h2.87Z" transform="translate(0 -3.68)"/><rect class="cls-7" x="275.55" y="243.98" width="2.87" height="2.39"/></g><path class="cls-4" d="M311.65,104.25a4.79,4.79,0,0,0-4.36,6.77l-28.61,30.26a4.78,4.78,0,0,0-6.52,4.46,3.71,3.71,0,0,0,0,.48l-26.92,14.42a4.73,4.73,0,0,0-3-1.11,4.8,4.8,0,0,0-4.79,4.79,4.93,4.93,0,0,0,.21,1.33l-27.79,22.14a4.71,4.71,0,0,0-2.32-.63,4.79,4.79,0,0,0-4.74,4.22l-26.19,7.18a4.77,4.77,0,0,0-8.56,2.92,4.57,4.57,0,0,0,.21,1.33L140.48,225a4.68,4.68,0,0,0-2.32-.63,4.8,4.8,0,1,0,4.79,4.79,4.93,4.93,0,0,0-.21-1.33l27.8-22.14a4.68,4.68,0,0,0,2.32.63,4.79,4.79,0,0,0,4.73-4.21l26.19-7.19a4.77,4.77,0,0,0,8.57-2.92,4.93,4.93,0,0,0-.21-1.33l27.79-22.14a4.71,4.71,0,0,0,2.32.63,4.8,4.8,0,0,0,4.8-4.79c0-.17,0-.32-.05-.49l26.92-14.41a4.77,4.77,0,0,0,7.39-5.65l28.62-30.27a4.67,4.67,0,0,0,1.72.34,4.8,4.8,0,0,0,0-9.59Z" transform="translate(0 -3.68)"/><g class="cls-8"><circle class="cls-9" cx="172.86" cy="197.8" r="3.43"/><circle class="cls-10" cx="207.56" cy="188.28" r="3.43"/><circle class="cls-11" cx="242.25" cy="160.64" r="3.43"/><circle class="cls-12" cx="276.95" cy="142.06" r="3.43"/><circle class="cls-7" cx="311.65" cy="105.37" r="3.43"/></g><path class="cls-4" d="M201.85,181.79a1.39,1.39,0,0,0-1.27.81H172.22a1.87,1.87,0,0,1-1.87-1.87V151h-1.2v29.75a3.07,3.07,0,0,0,3.07,3.06h28.36a1.4,1.4,0,1,0,1.27-2Z" transform="translate(0 -3.68)"/><rect class="cls-4" x="150.51" y="139.03" width="38.47" height="14.59" rx="2.59"/><g class="cls-13"><path class="cls-7" d="M201.85,181.79a1.39,1.39,0,0,0-1.27.81H172.22a1.87,1.87,0,0,1-1.87-1.87V151h-1.2v29.75a3.07,3.07,0,0,0,3.07,3.06h28.36a1.4,1.4,0,1,0,1.27-2Z" transform="translate(0 -3.68)"/><rect class="cls-7" x="150.51" y="139.03" width="38.47" height="14.59" rx="2.59"/></g><path class="cls-4" d="M242.85,151.57V108.7h-1.19v42.87a1.41,1.41,0,1,0,1.19,0Z" transform="translate(0 -3.68)"/><rect class="cls-4" x="223.02" y="97.73" width="38.47" height="14.59" rx="2.59"/><g class="cls-13"><path class="cls-7" d="M242.85,151.57V108.7h-1.19v42.87a1.41,1.41,0,1,0,1.19,0Z" transform="translate(0 -3.68)"/><rect class="cls-7" x="223.02" y="97.73" width="38.47" height="14.59" rx="2.59"/></g><path class="cls-4" d="M322.51,256.32H124.69a3.79,3.79,0,0,1,3.78-3.79H318.72a3.79,3.79,0,0,1,3.79,3.79Z" transform="translate(0 -3.68)"/><path class="cls-14" d="M322.51,256.32H124.69a3.79,3.79,0,0,1,3.78-3.79H318.72a3.79,3.79,0,0,1,3.79,3.79Z" transform="translate(0 -3.68)"/></g><g id="Character_2" data-name="Character 2"><g id="_Group_" data-name="&lt;Group&gt;"><path class="cls-15" d="M432.86,253l4.26,11.2s4.88,2.75,5.25,3.53,1.45,10.32.68,11.33-10.71-1.62-10.73-2.66-.49-9.56-.49-9.56l-5.72-12.24Z" transform="translate(0 -3.68)"/><path class="cls-4" d="M412.25,164.63c7.41,4.44,8.2,44.77,9.39,48.54s15.84,45.3,15.84,45.3l-10.3,4s-14.65-30.85-17.81-39.58-5.28-28.5-5.28-28.5Z" transform="translate(0 -3.68)"/><path class="cls-16" d="M412.25,164.63c7.41,4.44,8.2,44.77,9.39,48.54s15.84,45.3,15.84,45.3l-10.3,4s-14.65-30.85-17.81-39.58-5.28-28.5-5.28-28.5Z" transform="translate(0 -3.68)"/><path class="cls-4" d="M402.17,159.37c-11.16-6.13-25.58-4.84-25.58-4.84l-12.86,18.18L345.58,237.6l2.67,2.43,1.14-5.15,49.35,5,.83,6.72,2.84-1.39,1.68-79.77Z" transform="translate(0 -3.68)"/><path class="cls-17" d="M402.17,159.37c-11.16-6.13-25.58-4.84-25.58-4.84l-12.86,18.18L345.58,237.6l2.67,2.43,1.14-5.15,49.35,5,.83,6.72,2.84-1.39,1.68-79.77Z" transform="translate(0 -3.68)"/><path class="cls-15" d="M332.22,112.07,328.66,100a49,49,0,0,0,.63-7.7c-.21-2.2-5.38-6.41-7-7.89s-8.32,3.32-8,4.36,4.23,9.19,5.47,10.13l2,1.13,3.09,15.2Z" transform="translate(0 -3.68)"/><path class="cls-4" d="M366.69,155.52c-11.32-5.8-19.95-14.76-23.12-20s-12.5-32.65-12.5-32.65l-9.85,1.5s5.93,33.67,9.1,41,32.27,33.93,32.27,33.93Z" transform="translate(0 -3.68)"/><path class="cls-16" d="M366.69,155.52c-11.32-5.8-19.95-14.76-23.12-20s-12.5-32.65-12.5-32.65l-9.85,1.5s5.93,33.67,9.1,41,32.27,33.93,32.27,33.93Z" transform="translate(0 -3.68)"/><polygon class="cls-15" points="359.33 404.87 351.22 405.73 349.69 388.23 357.81 387.38 359.33 404.87"/><polygon class="cls-15" points="399.81 404.28 391.95 404.28 391.3 386.07 399.17 386.07 399.81 404.28"/><path class="cls-18" d="M390.86,407.05h9.55a.69.69,0,0,1,.67.54l1.55,7a1.16,1.16,0,0,1-.9,1.37,1.07,1.07,0,0,1-.25,0c-3.09-.05-5.34-.24-9.22-.24-2.39,0-9.6.25-12.9.25s-3.73-3.26-2.38-3.56c6.06-1.32,10.62-3.15,12.56-4.89A1.89,1.89,0,0,1,390.86,407.05Z" transform="translate(0 -3.68)"/><path class="cls-4" d="M388.26,408.43a2.36,2.36,0,0,1-1.51-.4,1.09,1.09,0,0,1-.39-1,.55.55,0,0,1,.32-.52c.87-.45,3.41,1.11,3.69,1.29a.18.18,0,0,1,.09.18.19.19,0,0,1-.14.16A9.65,9.65,0,0,1,388.26,408.43Zm-1.17-1.63a.39.39,0,0,0-.24.05c-.05,0-.11.07-.12.22a.77.77,0,0,0,.25.67,3.82,3.82,0,0,0,2.8.14A7.5,7.5,0,0,0,387.09,406.8Z" transform="translate(0 -3.68)"/><path class="cls-4" d="M390.27,408.15h-.09c-.81-.44-2.38-2.17-2.22-3a.61.61,0,0,1,.6-.49,1,1,0,0,1,.79.24c.91.74,1.1,3,1.11,3.11a.22.22,0,0,1-.09.17A.17.17,0,0,1,390.27,408.15ZM388.69,405h-.09c-.24,0-.26.14-.27.19-.1.51.9,1.82,1.71,2.43a4.41,4.41,0,0,0-.93-2.46A.67.67,0,0,0,388.69,405Z" transform="translate(0 -3.68)"/><path class="cls-18" d="M350.36,406.8h9.55a.69.69,0,0,1,.67.54l1.55,7a1.16,1.16,0,0,1-.9,1.37,1.07,1.07,0,0,1-.25,0c-3.09-.05-5.34-.24-9.22-.24-2.39,0-9.6.25-12.9.25s-3.73-3.26-2.38-3.56c6.06-1.32,10.62-3.15,12.56-4.89A1.89,1.89,0,0,1,350.36,406.8Z" transform="translate(0 -3.68)"/><path class="cls-4" d="M347.76,408.18a2.36,2.36,0,0,1-1.51-.4,1.09,1.09,0,0,1-.39-1,.55.55,0,0,1,.32-.52c.87-.45,3.41,1.11,3.69,1.29a.18.18,0,0,1,.09.18.19.19,0,0,1-.14.16A9.65,9.65,0,0,1,347.76,408.18Zm-1.17-1.63a.39.39,0,0,0-.24.05c-.05,0-.11.07-.12.22a.77.77,0,0,0,.25.67,3.82,3.82,0,0,0,2.8.14A7.5,7.5,0,0,0,346.59,406.55Z" transform="translate(0 -3.68)"/><path class="cls-4" d="M349.77,407.9h-.09c-.81-.44-2.38-2.17-2.22-3a.61.61,0,0,1,.6-.49,1,1,0,0,1,.79.24c.91.74,1.1,3,1.11,3.11a.22.22,0,0,1-.09.17A.17.17,0,0,1,349.77,407.9Zm-1.58-3.19h-.09c-.24,0-.26.14-.27.19-.1.51.9,1.82,1.71,2.43a4.41,4.41,0,0,0-.93-2.46A.67.67,0,0,0,348.19,404.71Z" transform="translate(0 -3.68)"/><polygon class="cls-16" points="357.81 387.38 349.69 388.23 350.49 397.26 358.6 396.4 357.81 387.38"/><polygon class="cls-16" points="399.17 386.08 391.3 386.08 391.64 395.47 399.51 395.47 399.17 386.08"/><path class="cls-18" d="M395.92,230H354.2c-4,21.67-16.39,98.33-7.48,166.63l14.13-1.75S359.54,304.22,372,270.7c1.44,17.94,3.14,37,4.62,47.19,3.63,25,11.4,79.63,11.4,79.63h14.38s-2.94-52.29-4.3-76.86C396.62,294,396,235.5,395.92,230Z" transform="translate(0 -3.68)"/><path class="cls-16" d="M372,270.7a111.8,111.8,0,0,0-4.66,18.05c-1.17-16,3.5-32.89,3.5-32.89Z" transform="translate(0 -3.68)"/><polygon class="cls-4" points="345.11 396.26 362.59 393.66 362.06 388.82 343.87 391.21 345.11 396.26"/><polygon class="cls-19" points="345.11 396.26 362.59 393.66 362.06 388.82 343.87 391.21 345.11 396.26"/><polygon class="cls-4" points="386.3 393.96 403.26 393.96 403.26 388.89 385.66 388.56 386.3 393.96"/><polygon class="cls-19" points="386.3 393.96 403.26 393.96 403.26 388.89 385.66 388.56 386.3 393.96"/><polygon class="cls-18" points="353.85 226.85 395.85 226.85 395.85 231.85 353.31 231.33 353.85 226.85"/><polygon class="cls-20" points="353.85 226.85 395.85 226.85 395.85 231.85 353.31 231.33 353.85 226.85"/><rect class="cls-18" x="380.85" y="224.6" width="1.5" height="8.88"/><rect class="cls-18" x="359.6" y="224.6" width="1.5" height="8.88"/><path class="cls-4" d="M366.69,155.52s26.5,1.85,45.56,9.11c0,0-13.79,42.63-16.37,67.5l-42-1.61S356.84,180.34,366.69,155.52Z" transform="translate(0 -3.68)"/><path class="cls-5" d="M412.25,164.63s-2.75,8.5-6,20.11c-1.21,4.32-2.5,9.07-3.75,14-2.9,11.46-5.6,23.77-6.6,33.41l-42-1.61s3-50.18,12.84-75C366.69,155.52,393.19,157.37,412.25,164.63Z" transform="translate(0 -3.68)"/><path class="cls-15" d="M397.59,160.09c-4.21,3-13.38.64-13.38.64s-5.63-2.27-4.2-3.95c3.49-.16,5.34-1.57,6.27-3.53a10.14,10.14,0,0,0,.8-3.88,20.41,20.41,0,0,0,0-2.21L399.57,140C397.4,145.43,394.34,155.57,397.59,160.09Z" transform="translate(0 -3.68)"/><path class="cls-16" d="M396.27,145.09c-1.26,6.85-7.17,8.1-10,8.16a10.14,10.14,0,0,0,.8-3.88Z" transform="translate(0 -3.68)"/><path class="cls-18" d="M389.8,117.82s-7.21,8.25-4.6,14.85,13.45-10.4,13.45-10.4Z" transform="translate(0 -3.68)"/><path class="cls-15" d="M394.65,148.91a9.83,9.83,0,0,1-11.57-2.86,10.91,10.91,0,0,1-2.53-7.65,9.32,9.32,0,0,1,.12-1.16c1.17-7.1,6.63-17.35,14.87-17.25A10.66,10.66,0,0,1,405,135.51C401.52,142.5,399.83,146.77,394.65,148.91Z" transform="translate(0 -3.68)"/><path class="cls-18" d="M393.21,132.94c-.2.59-.75.93-1.13.76s-.49-.77-.25-1.35.76-.92,1.14-.76S393.46,132.34,393.21,132.94Z" transform="translate(0 -3.68)"/><path class="cls-18" d="M386.61,130.16c-.21.59-.76.92-1.14.76s-.49-.77-.25-1.35.76-.92,1.14-.76S386.84,129.6,386.61,130.16Z" transform="translate(0 -3.68)"/><path class="cls-21" d="M388.58,131.33a22.38,22.38,0,0,1-4.89,3.82,3.65,3.65,0,0,0,2.59,1.71Z" transform="translate(0 -3.68)"/><path class="cls-18" d="M396.16,131.66a.37.37,0,0,1-.27-.27,3,3,0,0,0-1.72-2.08.37.37,0,0,1-.23-.47.38.38,0,0,1,.47-.23h0a3.67,3.67,0,0,1,2.19,2.59.36.36,0,0,1-.25.46h-.19Z" transform="translate(0 -3.68)"/><path class="cls-18" d="M386,140.29h0a5.73,5.73,0,0,0,5.26.36.2.2,0,0,0-.16-.36h0a5.49,5.49,0,0,1-4.88-.36.19.19,0,0,0-.26.05v0a.2.2,0,0,0,.05.27Z" transform="translate(0 -3.68)"/><path class="cls-18" d="M384.73,126.69a.48.48,0,0,1-.21-.07.38.38,0,0,1,0-.53h0a3.65,3.65,0,0,1,3.28-.89.37.37,0,0,1,.26.45h0a.38.38,0,0,1-.46.25h0a3,3,0,0,0-2.59.75A.42.42,0,0,1,384.73,126.69Z" transform="translate(0 -3.68)"/><path class="cls-18" d="M403.45,124.34l-1.86,2.92a2.55,2.55,0,0,1-.23,3.46c-2.24,2.13-2.69,6.88-1.47,9.44,0,0,.61-1.1,1.43-.38s-2.25,6.48-5.44,8.39c0,0,4-1.19,8.55-6.6,4.19-5,6.65-9.67,6.53-12.44Z" transform="translate(0 -3.68)"/><path class="cls-15" d="M405.61,142.72a7.37,7.37,0,0,1-5.37,1.8c-2.59-.19-3-2.72-1.55-4.71,1.31-1.76,4.25-3.84,6.49-2.64S407.41,141.11,405.61,142.72Z" transform="translate(0 -3.68)"/><path class="cls-18" d="M398.65,123.66s1.24-1.16,1.34,1.45,1.67,4.38,5.23,6.22,4.69,2,4.69,2,5.79-5.47-.26-11.7c0,0,.28-3.21-3.53-5.3-6.55-3.6-15.54-2.11-18.7,1.53a5.27,5.27,0,0,0-1.14,5.45S396.62,117.82,398.65,123.66Z" transform="translate(0 -3.68)"/><path class="cls-4" d="M396.4,155.5l-11.59,3.68-.18-4.06-4.22.95a3.35,3.35,0,0,0-2.61,3.23l-.06,4.42,4.61-1.86s-6.87,16.12-7.77,39c0,0,2.62-24.66,9.74-38.38l1.69,3.11,14-4.82Z" transform="translate(0 -3.68)"/><path class="cls-19" d="M396.4,155.5l-11.59,3.68-.18-4.06-4.22.95a3.35,3.35,0,0,0-2.61,3.23l-.06,4.42,4.61-1.86s-6.87,16.12-7.77,39c0,0,2.62-24.66,9.74-38.38l1.69,3.11,14-4.82Z" transform="translate(0 -3.68)"/><rect class="cls-4" x="365.22" y="225.97" width="7.77" height="5.6"/><rect class="cls-14" x="365.22" y="225.97" width="7.77" height="5.6"/><path class="cls-4" d="M374.58,156.31s-20.72,54.76-25.47,80.9L346,235.52s11.94-59.92,20.74-80Z" transform="translate(0 -3.68)"/><path class="cls-4" d="M403.42,161.78s-8.78,44.08-4.77,80.21l4.77-1.06s5.77-57.66,8.83-76.3Z" transform="translate(0 -3.68)"/><path class="cls-4" d="M372,163.33l.81-7.2,3.8-1.6A10.15,10.15,0,0,1,372,163.33Z" transform="translate(0 -3.68)"/><path class="cls-16" d="M372,163.33l.81-7.2,3.8-1.6A10.15,10.15,0,0,1,372,163.33Z" transform="translate(0 -3.68)"/><path class="cls-4" d="M402.17,168.87a13.23,13.23,0,0,1,0-9.5l3.55,3.15Z" transform="translate(0 -3.68)"/><path class="cls-16" d="M402.17,168.87a13.23,13.23,0,0,1,0-9.5l3.55,3.15Z" transform="translate(0 -3.68)"/><rect class="cls-18" x="424.28" y="263.63" width="26.41" height="38.84" rx="1.19" transform="translate(618.36 -209.29) rotate(77.41)"/><rect class="cls-20" x="424.28" y="263.63" width="26.41" height="38.84" rx="1.19" transform="translate(618.36 -209.29) rotate(77.41)"/><path class="cls-4" d="M442.74,309.24,428,295.66c2-20.79,23.15-27.45,23.15-27.45l5,22.46S438.91,292.23,442.74,309.24Z" transform="translate(0 -3.68)"/><path class="cls-5" d="M442.74,309.24,428,295.66c2-20.79,23.15-27.45,23.15-27.45l5,22.46S438.91,292.23,442.74,309.24Z" transform="translate(0 -3.68)"/><path class="cls-4" d="M452.16,283.93,450.39,276a1.27,1.27,0,0,1,1-1.53l2.19-.49a1.28,1.28,0,0,1,1.53,1l1.77,7.93a1.28,1.28,0,0,1-1,1.53l-2.19.49A1.28,1.28,0,0,1,452.16,283.93Zm2-8.78a.36.36,0,0,0-.43-.27l-2.19.49a.36.36,0,0,0-.28.43l1.77,7.93a.37.37,0,0,0,.43.27l2.2-.49a.36.36,0,0,0,.27-.43Z" transform="translate(0 -3.68)"/><g class="cls-13"><path class="cls-7" d="M452.16,283.93,450.39,276a1.27,1.27,0,0,1,1-1.53l2.19-.49a1.28,1.28,0,0,1,1.53,1l1.77,7.93a1.28,1.28,0,0,1-1,1.53l-2.19.49A1.28,1.28,0,0,1,452.16,283.93Zm2-8.78a.36.36,0,0,0-.43-.27l-2.19.49a.36.36,0,0,0-.28.43l1.77,7.93a.37.37,0,0,0,.43.27l2.2-.49a.36.36,0,0,0,.27-.43Z" transform="translate(0 -3.68)"/></g></g></g><g id="Character_1" data-name="Character 1"><path class="cls-22" d="M119.55,232.9h5s2.93,1.32,4.44,1,11-5.89,10.47-6.84-20.77,1.07-20.77,1.07Z" transform="translate(0 -3.68)"/><path class="cls-22" d="M125.47,288.82s-.5,7.45-1.53,19c-.37,4.22-.81,9-1.33,14.14-2.24,22.32-5.84,51.91-10.93,75.82l-5-.08s-3.71-36.1,2.5-60.19l-.63-17.11-.44-11.79-.73-19.83Z" transform="translate(0 -3.68)"/><path class="cls-22" d="M103.13,292.32s-1.58,6.53-4.29,16.79c-.8,3-1.69,6.36-2.67,9.95-6,22.07-15.3,53.66-25.17,78.33l-4.93-.93s2.49-36.21,12.71-58.89l2.71-20.14,1-7.51,2.79-20.68Z" transform="translate(0 -3.68)"/><path class="cls-16" d="M82.5,309.92l16.34-.81c-.8,3-1.69,6.36-2.67,9.95l-14.68-1.63Z" transform="translate(0 -3.68)"/><path class="cls-16" d="M123.94,307.86c-.37,4.22-.81,9-1.33,14.14l-14.07-1.56-.44-11.79Z" transform="translate(0 -3.68)"/><path class="cls-18" d="M79.86,200.09c-3.26,1.28-2.11,31.59,3.6,39.79s39.16-4.36,39.16-4.36l-.8-7.34L92,228.27Z" transform="translate(0 -3.68)"/><path class="cls-18" d="M157.36,224.22l-35.54,2.13,4.23-26a1.24,1.24,0,0,1,1.15-1l33.69-2a.69.69,0,0,1,.72.8Z" transform="translate(0 -3.68)"/><path class="cls-9" d="M157.36,224.22l-35.54,2.13,4.23-26a1.24,1.24,0,0,1,1.15-1l33.69-2a.69.69,0,0,1,.72.8Z" transform="translate(0 -3.68)"/><path class="cls-18" d="M156.9,224.25l-35.54,2.13,4.23-26a1.23,1.23,0,0,1,1.15-1l33.69-2a.68.68,0,0,1,.72.79Z" transform="translate(0 -3.68)"/><polygon class="cls-4" points="155.91 219.78 122.62 221.78 126.73 196.48 160.02 194.48 155.91 219.78"/><polygon class="cls-10" points="155.91 219.78 122.62 221.78 126.73 196.48 160.02 194.48 155.91 219.78"/><path class="cls-18" d="M156.9,224.25l.07,1.28a1.3,1.3,0,0,1-1.21,1.37L104.44,230a1.29,1.29,0,0,1-1.37-1.21l-.08-1.27Z" transform="translate(0 -3.68)"/><path class="cls-9" d="M156.9,224.25l.07,1.28a1.3,1.3,0,0,1-1.21,1.37L104.44,230a1.29,1.29,0,0,1-1.37-1.21l-.08-1.27Z" transform="translate(0 -3.68)"/><path class="cls-9" d="M156.9,224.25l.07,1.28a1.3,1.3,0,0,1-1.21,1.37l-21.38,1.28A1.29,1.29,0,0,1,133,227l-.08-1.28Z" transform="translate(0 -3.68)"/><g class="cls-23"><polygon class="cls-7" points="128.26 216.56 126.9 216.65 127.47 213.39 128.83 213.3 128.26 216.56"/><polygon class="cls-7" points="130.85 216.4 129.48 216.49 130.4 211.21 131.77 211.12 130.85 216.4"/><polygon class="cls-7" points="133.43 216.24 132.07 216.33 133.34 209.02 134.7 208.94 133.43 216.24"/><polygon class="cls-7" points="136.02 216.08 134.65 216.17 136.1 207.85 137.47 207.77 136.02 216.08"/><polygon class="cls-7" points="138.6 215.92 137.24 216.01 138.86 206.68 140.23 206.6 138.6 215.92"/><polygon class="cls-7" points="141.19 215.76 139.82 215.84 141.8 204.5 143.16 204.42 141.19 215.76"/><polygon class="cls-7" points="143.77 215.6 142.41 215.69 144.21 205.35 145.57 205.27 143.77 215.6"/><polygon class="cls-7" points="146.36 215.44 144.99 215.53 146.62 206.2 147.98 206.12 146.36 215.44"/><polygon class="cls-7" points="148.94 215.28 147.57 215.37 149.55 204.02 150.92 203.94 148.94 215.28"/><polygon class="cls-7" points="151.53 215.12 150.16 215.2 152.66 200.83 154.03 200.74 151.53 215.12"/></g><path class="cls-4" d="M126.44,316.66c6.08-55.15-4.43-73.91-4.43-73.91l-29.66-5.07a134.4,134.4,0,0,0-2.49,16.6s-2.85,10.2-3.76,13a147.31,147.31,0,0,0-6.55,49.35Z" transform="translate(0 -3.68)"/><g class="cls-24"><path d="M126.44,316.66H79.55s-.24-3.53-.07-9.32a147.19,147.19,0,0,1,6.62-40c.91-2.83,3.76-13,3.76-13q.11-1,.21-2a120.08,120.08,0,0,1,2.28-14.59L122,242.75S132.52,261.51,126.44,316.66Z" transform="translate(0 -3.68)"/></g><path class="cls-16" d="M107.79,286.56s-12,15.24-28.31,20.78a147.19,147.19,0,0,1,6.62-40c.91-2.83,3.76-13,3.76-13q.11-1,.21-2L120.65,250s-11.08,11.11-23,14C97.7,264,98.19,280.49,107.79,286.56Z" transform="translate(0 -3.68)"/><path class="cls-18" d="M108.13,174c0,.63.33,1.14.75,1.14s.75-.52.75-1.16-.35-1.14-.76-1.14S108.13,173.38,108.13,174Z" transform="translate(0 -3.68)"/><path class="cls-18" d="M106.82,172.5a.38.38,0,0,0,.36-.15,3,3,0,0,1,2.37-1.26.38.38,0,0,0,.4-.35.37.37,0,0,0-.35-.39h0a3.69,3.69,0,0,0-3,1.55.37.37,0,0,0,.06.52h0Z" transform="translate(0 -3.68)"/><path class="cls-25" d="M108.62,175.58a15.9,15.9,0,0,0,1.85,3.88,2.53,2.53,0,0,1-2.13.26Z" transform="translate(0 -3.68)"/><path class="cls-22" d="M93.5,186.67a1.37,1.37,0,0,0,.24.18,10.87,10.87,0,0,0,3.83,1.87c4.05.94,6.82.38,8.63-1.45h0c2.53-2.75,3.16-7.62,2.8-13.5a22,22,0,0,0-1.28-6.86s0-.09,0-.11-.06-.17-.1-.25a8,8,0,0,0-5.9-4.89,16.19,16.19,0,0,0-3.47-.39C86.78,161.15,84.72,180.13,93.5,186.67Z" transform="translate(0 -3.68)"/><path class="cls-16" d="M93.91,187.33a10.47,10.47,0,0,0,3.87,1.61c4.07.83,6.82.07,8.58-1.84a11.37,11.37,0,0,1-7.28-.4A5.93,5.93,0,0,0,93.91,187.33Z" transform="translate(0 -3.68)"/><path class="cls-22" d="M92.58,197.2c-.71,3.26,3.52,4.59,3.52,4.59,6.91-2.95,8.19-6.63,8.19-6.63-5.77-3-4.1-11.51-4.1-11.51l-1.17.58-8.23,1.61s2.28,4.38,2.58,5.38v0C94.93,196.47,92.58,197.2,92.58,197.2Z" transform="translate(0 -3.68)"/><path class="cls-18" d="M107.73,166.83s.63,8-7,11.49c0,0-3.27,8.35-8.08,8.46-6.57.16-12.35-9.17-10.08-18.68C85.54,155.76,104.23,154.76,107.73,166.83Z" transform="translate(0 -3.68)"/><path class="cls-22" d="M104.61,176c0-1.25-1-3.36-3-3.07s-3.14,5.27,1.82,6.38C104.18,179.48,104.61,178.63,104.61,176Z" transform="translate(0 -3.68)"/><path class="cls-18" d="M93.74,158.29s7.67-1.94,11.9,1.15c5,3.6,6.83,7.32,1,13.1,0,0-12.87-4.17-17.15-3.29a45.87,45.87,0,0,0-7.34,2.13C81.22,162.88,89.46,156.55,93.74,158.29Z" transform="translate(0 -3.68)"/><path class="cls-26" d="M109.1,163.43s3.55,2.42,1.92,6.15-6.41,3.82-6.41,3.82" transform="translate(0 -3.68)"/><path class="cls-18" d="M104.61,174.08s-2,9.26,1.14,17.16c0,0-18.2,6.31-24.53,2.88s-.53-14.94-.26-21.58,3.15-16.45,12.78-14.25S104.61,174.08,104.61,174.08Z" transform="translate(0 -3.68)"/><path class="cls-18" d="M121.46,414.36a9.82,9.82,0,0,0-3.13-1.7h0s-3.41-3.39-5-13.57l-4.47-1.17a3.82,3.82,0,0,0-4.06,1.59,2.13,2.13,0,0,0-.28.59,26.13,26.13,0,0,0-.48,3.31,91.49,91.49,0,0,0-.06,11.18h.8l.32-7c.12-2.39,2,.41,2.47,3s1.63,5.3,6.86,5.42C120.47,416.09,123,415.85,121.46,414.36Z" transform="translate(0 -3.68)"/><path class="cls-18" d="M104.59,399.59c-.29-2.38-.38-6.52-.38-6.52l9.92,1.1s-1.2,4.71-.21,8.25C108.92,401.1,104.59,399.59,104.59,399.59Z" transform="translate(0 -3.68)"/><path class="cls-18" d="M81.1,414.36a9.82,9.82,0,0,0-3.13-1.7h0s-3.41-3.39-5-13.57l-4.47-1.17a3.82,3.82,0,0,0-4.06,1.59,2.13,2.13,0,0,0-.28.59,26.13,26.13,0,0,0-.48,3.31,91.49,91.49,0,0,0-.06,11.18h.8l.32-7c.12-2.39,2,.41,2.47,3s1.63,5.3,6.86,5.42C80.11,416.09,82.64,415.85,81.1,414.36Z" transform="translate(0 -3.68)"/><path class="cls-18" d="M64.24,399.59c-.3-2.38-.39-6.52-.39-6.52l9.92,1.1s-1.2,4.71-.21,8.25C68.56,401.1,64.24,399.59,64.24,399.59Z" transform="translate(0 -3.68)"/><path class="cls-18" d="M79.86,200.09s6.33-2.48,12-4a95.93,95.93,0,0,1,13.46-2.34,89.62,89.62,0,0,1,12.9-.51c-.12,2.08-.21,4-.29,5.88-.11,2.43-.19,4.68-.24,6.77-.1,3.92-.09,7.28,0,10.26a100.12,100.12,0,0,0,2.35,19.32L126.44,251l-38.37,4.89,2.17-15.29h0c-6.36-18.53-9.09-28.29-10.12-33.83C79,200.58,79.86,200.09,79.86,200.09Z" transform="translate(0 -3.68)"/><path class="cls-27" d="M79.86,200.09s6.33-2.48,12-4a95.93,95.93,0,0,1,13.46-2.34,89.62,89.62,0,0,1,12.9-.51c-.12,2.08-.21,4-.29,5.88-.11,2.43-.19,4.68-.24,6.77-.1,3.92-.09,7.28,0,10.26a100.12,100.12,0,0,0,2.35,19.32L126.44,251l-38.37,4.89,2.17-15.29h0c-6.36-18.53-9.09-28.29-10.12-33.83C79,200.58,79.86,200.09,79.86,200.09Z" transform="translate(0 -3.68)"/><path class="cls-22" d="M156,234l8.7,2.59a17.66,17.66,0,0,1,3.17-.66c.92,0,8.83,3,9.89,4s-5,6.33-5.33,6.59-8.52-3-8.91-3.16-.53-1.39-.53-1.39l-9.63-2.44Z" transform="translate(0 -3.68)"/><path class="cls-18" d="M118.23,193.2c4.79,3.16,16.83,33.12,18.41,33.91s25,7.51,25,7.51l-2.92,7.3s-25.64-4.57-28.21-6.36-12.81-20.4-12.81-20.4a47.47,47.47,0,0,1-2.16-12.47A16.55,16.55,0,0,1,118.23,193.2Z" transform="translate(0 -3.68)"/></g><g id="Device"><rect class="cls-4" x="261.44" y="374.38" width="7.12" height="37.94"/><rect class="cls-4" x="264.44" y="374.38" width="4.12" height="37.94"/><rect class="cls-16" x="264.44" y="374.38" width="4.12" height="37.94"/><polygon class="cls-16" points="268.56 374.38 268.56 390.01 264.44 388.61 261.44 387.59 261.44 374.38 268.56 374.38"/><rect class="cls-4" x="291.44" y="374.39" width="7.12" height="37.94"/><rect class="cls-4" x="199.44" y="374.39" width="7.12" height="37.94"/><rect class="cls-16" x="199.44" y="374.39" width="7.12" height="37.94"/><polygon class="cls-4" points="299.7 356.4 299.7 412.32 294.38 412.32 294.38 377.81 228.45 377.81 228.45 412.32 218.69 412.32 218.69 377.81 202.6 377.81 202.6 412.32 199.44 412.32 199.44 356.4 299.7 356.4"/><polygon class="cls-18" points="221.25 356.4 219.48 356.4 219.48 347.62 223.02 347.62 221.25 356.4"/><polygon class="cls-16" points="299.7 356.4 299.7 412.32 294.38 412.32 294.38 377.81 228.45 377.81 228.45 412.32 223.02 412.32 223.02 356.4 299.7 356.4"/><path class="cls-18" d="M279.05,343.41l.06,0-17.24-4.17a4.23,4.23,0,0,0-1.19-.19H221.85a4.29,4.29,0,0,0-4.28,3.9l-.78,8.28a4.28,4.28,0,0,0,2.93,4.46h0l.27.07.33.08,16.83,4.11h0a4.2,4.2,0,0,0,1.08.15H277a4.3,4.3,0,0,0,4.28-3.9l.78-8.28A4.3,4.3,0,0,0,279.05,343.41Z" transform="translate(0 -3.68)"/><path class="cls-20" d="M279.05,343.41l.06,0-17.24-4.17a4.23,4.23,0,0,0-1.19-.19H221.85a4.29,4.29,0,0,0-4.28,3.9l-.78,8.28a4.28,4.28,0,0,0,2.93,4.46h0l.27.07.33.08,16.83,4.11h0a4.2,4.2,0,0,0,1.08.15H277a4.3,4.3,0,0,0,4.28-3.9l.78-8.28A4.3,4.3,0,0,0,279.05,343.41Z" transform="translate(0 -3.68)"/><path class="cls-28" d="M277,360.08H238.19a4.31,4.31,0,0,1-4.29-4.7l.78-8.28a4.3,4.3,0,0,1,4.28-3.9h38.83a4.31,4.31,0,0,1,4.29,4.7l-.78,8.28A4.3,4.3,0,0,1,277,360.08Z" transform="translate(0 -3.68)"/><g class="cls-29"><path class="cls-7" d="M266.34,352.32a4.89,4.89,0,0,1-4.81,4.25,3.8,3.8,0,0,1-3.91-4.25,4.9,4.9,0,0,1,4.81-4.24A3.79,3.79,0,0,1,266.34,352.32Z" transform="translate(0 -3.68)"/><path class="cls-7" d="M277.62,353.85h-6.33a.57.57,0,0,1-.59-.64l.19-1.8a.74.74,0,0,1,.73-.64H278a.57.57,0,0,1,.59.64l-.19,1.8A.74.74,0,0,1,277.62,353.85Z" transform="translate(0 -3.68)"/><polygon class="cls-7" points="243.62 353.77 241.37 353.77 241.6 351.58 243.85 351.58 243.62 353.77"/><polygon class="cls-7" points="246.71 353.77 244.47 353.77 244.7 351.58 246.94 351.58 246.71 353.77"/></g><path class="cls-4" d="M159.43,294.23a1.05,1.05,0,0,1-.65-.23l-2.45-2.07a1,1,0,0,1,1.29-1.53l2.45,2.07a1,1,0,0,1-.64,1.76Z" transform="translate(0 -3.68)"/><path class="cls-4" d="M172,304.77a1.05,1.05,0,0,1-.65-.23q-4-3.37-8-6.71a1,1,0,1,1,1.28-1.53q4,3.34,8,6.71a1,1,0,0,1-.64,1.76Z" transform="translate(0 -3.68)"/><path class="cls-4" d="M182,313.26a1,1,0,0,1-.65-.24l-4.75-4a1,1,0,0,1,1.3-1.53l4.74,4a1,1,0,0,1,.12,1.41A1,1,0,0,1,182,313.26Z" transform="translate(0 -3.68)"/><path class="cls-4" d="M203.59,331.61a1,1,0,0,1-.64-.23q-8.35-7-16.64-14.12l-.24-.21a1,1,0,0,1-.12-1.41,1,1,0,0,1,1.41-.11l.25.21q8.29,7.06,16.63,14.11a1,1,0,0,1-.65,1.76Z" transform="translate(0 -3.68)"/><path class="cls-4" d="M213.68,340a1,1,0,0,1-.64-.23l-4.79-4a1,1,0,0,1-.12-1.41,1,1,0,0,1,1.4-.12l4.79,4a1,1,0,0,1,.13,1.41A1,1,0,0,1,213.68,340Z" transform="translate(0 -3.68)"/><path class="cls-4" d="M200.79,278.15a1,1,0,0,1-.91-.58l-1.35-3a1,1,0,0,1,.49-1.32,1,1,0,0,1,1.33.49l1.35,3a1,1,0,0,1-.49,1.32A.91.91,0,0,1,200.79,278.15Z" transform="translate(0 -3.68)"/><path class="cls-4" d="M209.72,297.25a1,1,0,0,1-.91-.58c-2.12-4.66-4-8.7-5.84-12.34a1,1,0,0,1,1.8-.89c1.82,3.67,3.73,7.72,5.86,12.4a1,1,0,0,1-.5,1.32A1,1,0,0,1,209.72,297.25Z" transform="translate(0 -3.68)"/><path class="cls-4" d="M215.14,309.44a1,1,0,0,1-.92-.59c-.73-1.67-1.46-3.33-2.2-5a1,1,0,0,1,1.83-.8c.74,1.66,1.47,3.33,2.2,5a1,1,0,0,1-.51,1.32A1,1,0,0,1,215.14,309.44Z" transform="translate(0 -3.68)"/><path class="cls-4" d="M226.74,334.89a1,1,0,0,1-.9-.56c-3.28-6.63-6.34-13.46-9.15-19.86a1,1,0,0,1,.51-1.32,1,1,0,0,1,1.32.51c2.8,6.38,5.85,13.19,9.11,19.78a1,1,0,0,1-.89,1.45Z" transform="translate(0 -3.68)"/><path class="cls-4" d="M238.82,282.48a1,1,0,0,1-1-1V271a1,1,0,0,1,2,0v10.49A1,1,0,0,1,238.82,282.48Z" transform="translate(0 -3.68)"/><path class="cls-4" d="M238.88,294.49a1,1,0,0,1-1-1l-.06-5.25a1,1,0,0,1,1-1,1,1,0,0,1,1,1l.06,5.26a1,1,0,0,1-1,1Z" transform="translate(0 -3.68)"/><path class="cls-4" d="M238.93,321.81h0a1,1,0,0,1-1-1c0-7,0-14.13,0-21.33a1,1,0,0,1,1-1h0a1,1,0,0,1,1,1c0,7.2.05,14.38,0,21.35A1,1,0,0,1,238.93,321.81Z" transform="translate(0 -3.68)"/><path class="cls-4" d="M238.82,334.89h0a1,1,0,0,1-1-1c0-2.07.05-4.13.07-6.2a1,1,0,0,1,1-1,1,1,0,0,1,1,1c0,2.07,0,4.13-.07,6.2A1,1,0,0,1,238.82,334.89Z" transform="translate(0 -3.68)"/><path class="cls-4" d="M275.56,293.15A1.1,1.1,0,0,1,275,293a1,1,0,0,1-.34-1.38l3-4.94a1,1,0,1,1,1.71,1l-3,4.95A1,1,0,0,1,275.56,293.15Z" transform="translate(0 -3.68)"/><path class="cls-4" d="M261.8,315.64a1,1,0,0,1-.51-.14,1,1,0,0,1-.35-1.37c2.86-4.86,6.67-11.24,10.72-17.45a1,1,0,0,1,1.38-.29,1,1,0,0,1,.29,1.39c-4,6.17-7.82,12.52-10.67,17.37A1,1,0,0,1,261.8,315.64Z" transform="translate(0 -3.68)"/><path class="cls-4" d="M255.36,326.62a1.06,1.06,0,0,1-.51-.14,1,1,0,0,1-.35-1.37l3.08-5.25a1,1,0,0,1,1.36-.36,1,1,0,0,1,.36,1.37l-3.08,5.26A1,1,0,0,1,255.36,326.62Z" transform="translate(0 -3.68)"/><path class="cls-4" d="M249.43,336.47a1,1,0,0,1-.52-.15,1,1,0,0,1-.33-1.38q1.24-2,2.46-4a1,1,0,0,1,1.72,1c-.82,1.35-1.64,2.7-2.48,4.05A1,1,0,0,1,249.43,336.47Z" transform="translate(0 -3.68)"/><g class="cls-6"><path class="cls-7" d="M159.43,294.23a1.05,1.05,0,0,1-.65-.23l-2.45-2.07a1,1,0,0,1,1.29-1.53l2.45,2.07a1,1,0,0,1-.64,1.76Z" transform="translate(0 -3.68)"/><path class="cls-7" d="M172,304.77a1.05,1.05,0,0,1-.65-.23q-4-3.37-8-6.71a1,1,0,1,1,1.28-1.53q4,3.34,8,6.71a1,1,0,0,1-.64,1.76Z" transform="translate(0 -3.68)"/><path class="cls-7" d="M182,313.26a1,1,0,0,1-.65-.24l-4.75-4a1,1,0,0,1,1.3-1.53l4.74,4a1,1,0,0,1,.12,1.41A1,1,0,0,1,182,313.26Z" transform="translate(0 -3.68)"/><path class="cls-7" d="M203.59,331.61a1,1,0,0,1-.64-.23q-8.35-7-16.64-14.12l-.24-.21a1,1,0,0,1-.12-1.41,1,1,0,0,1,1.41-.11l.25.21q8.29,7.06,16.63,14.11a1,1,0,0,1-.65,1.76Z" transform="translate(0 -3.68)"/><path class="cls-7" d="M213.68,340a1,1,0,0,1-.64-.23l-4.79-4a1,1,0,0,1-.12-1.41,1,1,0,0,1,1.4-.12l4.79,4a1,1,0,0,1,.13,1.41A1,1,0,0,1,213.68,340Z" transform="translate(0 -3.68)"/><path class="cls-7" d="M200.79,278.15a1,1,0,0,1-.91-.58l-1.35-3a1,1,0,0,1,.49-1.32,1,1,0,0,1,1.33.49l1.35,3a1,1,0,0,1-.49,1.32A.91.91,0,0,1,200.79,278.15Z" transform="translate(0 -3.68)"/><path class="cls-7" d="M209.72,297.25a1,1,0,0,1-.91-.58c-2.12-4.66-4-8.7-5.84-12.34a1,1,0,0,1,1.8-.89c1.82,3.67,3.73,7.72,5.86,12.4a1,1,0,0,1-.5,1.32A1,1,0,0,1,209.72,297.25Z" transform="translate(0 -3.68)"/><path class="cls-7" d="M215.14,309.44a1,1,0,0,1-.92-.59c-.73-1.67-1.46-3.33-2.2-5a1,1,0,0,1,1.83-.8c.74,1.66,1.47,3.33,2.2,5a1,1,0,0,1-.51,1.32A1,1,0,0,1,215.14,309.44Z" transform="translate(0 -3.68)"/><path class="cls-7" d="M226.74,334.89a1,1,0,0,1-.9-.56c-3.28-6.63-6.34-13.46-9.15-19.86a1,1,0,0,1,.51-1.32,1,1,0,0,1,1.32.51c2.8,6.38,5.85,13.19,9.11,19.78a1,1,0,0,1-.89,1.45Z" transform="translate(0 -3.68)"/><path class="cls-7" d="M238.82,282.48a1,1,0,0,1-1-1V271a1,1,0,0,1,2,0v10.49A1,1,0,0,1,238.82,282.48Z" transform="translate(0 -3.68)"/><path class="cls-7" d="M238.88,294.49a1,1,0,0,1-1-1l-.06-5.25a1,1,0,0,1,1-1,1,1,0,0,1,1,1l.06,5.26a1,1,0,0,1-1,1Z" transform="translate(0 -3.68)"/><path class="cls-7" d="M238.93,321.81h0a1,1,0,0,1-1-1c0-7,0-14.13,0-21.33a1,1,0,0,1,1-1h0a1,1,0,0,1,1,1c0,7.2.05,14.38,0,21.35A1,1,0,0,1,238.93,321.81Z" transform="translate(0 -3.68)"/><path class="cls-7" d="M238.82,334.89h0a1,1,0,0,1-1-1c0-2.07.05-4.13.07-6.2a1,1,0,0,1,1-1,1,1,0,0,1,1,1c0,2.07,0,4.13-.07,6.2A1,1,0,0,1,238.82,334.89Z" transform="translate(0 -3.68)"/><path class="cls-7" d="M275.56,293.15A1.1,1.1,0,0,1,275,293a1,1,0,0,1-.34-1.38l3-4.94a1,1,0,1,1,1.71,1l-3,4.95A1,1,0,0,1,275.56,293.15Z" transform="translate(0 -3.68)"/><path class="cls-7" d="M261.8,315.64a1,1,0,0,1-.51-.14,1,1,0,0,1-.35-1.37c2.86-4.86,6.67-11.24,10.72-17.45a1,1,0,0,1,1.38-.29,1,1,0,0,1,.29,1.39c-4,6.17-7.82,12.52-10.67,17.37A1,1,0,0,1,261.8,315.64Z" transform="translate(0 -3.68)"/><path class="cls-7" d="M255.36,326.62a1.06,1.06,0,0,1-.51-.14,1,1,0,0,1-.35-1.37l3.08-5.25a1,1,0,0,1,1.36-.36,1,1,0,0,1,.36,1.37l-3.08,5.26A1,1,0,0,1,255.36,326.62Z" transform="translate(0 -3.68)"/><path class="cls-7" d="M249.43,336.47a1,1,0,0,1-.52-.15,1,1,0,0,1-.33-1.38q1.24-2,2.46-4a1,1,0,0,1,1.72,1c-.82,1.35-1.64,2.7-2.48,4.05A1,1,0,0,1,249.43,336.47Z" transform="translate(0 -3.68)"/></g><rect class="cls-7" x="426.79" y="8.06" width="24.77" height="25.23"/><path class="cls-30" d="M435.68,3.86c-9.74,1.53-17.11,8.79-18.3,18.06-1.27,10,5.77,19.35,16.61,22.06a31.45,31.45,0,0,0,10.47,0,22,22,0,0,0,14.68-11.31,17.49,17.49,0,0,0,2-8.6,18.93,18.93,0,0,0-6.8-14.79,23.09,23.09,0,0,0-11.65-5.4A31.43,31.43,0,0,0,435.68,3.86Zm1.22,11.26a13.43,13.43,0,0,1,1.72,3.33c0,.22-.6.29-2.15.29h-2.15v3.11h5.2l.15.69a10.22,10.22,0,0,1,.14,1.53,10.24,10.24,0,0,1-.14,1.54l-.15.68H434.3l.07,1.6.07,1.62,2.1.07c2,.07,2.1.07,1.93.56a13.35,13.35,0,0,1-1.72,3.08l-.59.85h-6.61v-20h6.63Zm7.73-.4c6.61,2.36,9,9.69,5,15.11A10.62,10.62,0,0,1,447.37,32a10.91,10.91,0,0,1-6.54,2,10.25,10.25,0,0,1-2.45,0,10.47,10.47,0,0,1,.67-1.31c.35-.62.83-1.58,1.07-2.09.33-.8.5-.95,1.29-1.07A6,6,0,0,0,445,27.94a5.15,5.15,0,0,0-1.09-8.49,5.93,5.93,0,0,0-2-.71c-.78,0-1.59-.35-1.59-.69a12.35,12.35,0,0,0-1-2,18,18,0,0,1-.95-1.91,14.92,14.92,0,0,1,2.45,0A13.81,13.81,0,0,1,444.63,14.72Z" transform="translate(0 -3.68)"/></g></svg>