<svg xmlns="http://www.w3.org/2000/svg" xmlns:xlink="http://www.w3.org/1999/xlink" viewBox="0 0 468.3 469.3"><defs><style>.cls-1{fill:url(#linear-gradient);}.cls-2{fill:url(#linear-gradient-2);}.cls-3{fill:url(#linear-gradient-3);}.cls-4{fill:url(#linear-gradient-4);}.cls-5{fill:#bfd2ff;}.cls-6{fill:#e6edff;}.cls-7{fill:#63738f;}.cls-8{fill:#333842;}.cls-9{fill:#3e4d66;}.cls-10{fill:#fefeff;}.cls-11{fill:#ffb861;}.cls-12{fill:#96b3ff;}.cls-13{fill:#ff6ea1;}.cls-14{fill:#3fd4c7;}.cls-15,.cls-18,.cls-22,.cls-24,.cls-28,.cls-31,.cls-33,.cls-35,.cls-38,.cls-39{fill:none;stroke:#333842;}.cls-15,.cls-18,.cls-22,.cls-28,.cls-33,.cls-35,.cls-38{stroke-linecap:round;}.cls-15,.cls-18,.cls-24,.cls-28,.cls-31,.cls-33,.cls-35,.cls-38,.cls-39{stroke-miterlimit:10;}.cls-15{stroke-width:0.68px;}.cls-16{fill:#e0e9ff;}.cls-17{fill:#628aec;}.cls-18,.cls-22,.cls-24{stroke-width:0.75px;}.cls-19{fill:#fff;}.cls-20{fill:#bfc5d4;}.cls-21{fill:#4f5d7a;}.cls-22{stroke-linejoin:round;}.cls-23{fill:#616e87;}.cls-25{fill:#3c4966;}.cls-26{fill:#f7b699;}.cls-27{fill:#c46e58;}.cls-28,.cls-31{stroke-width:0.3px;}.cls-29{fill:#6c7995;}.cls-30{fill:#abc0d4;}.cls-32{fill:#78c2f4;}.cls-33{stroke-width:0.48px;}.cls-34{fill:#3d434f;}.cls-35{stroke-width:0.48px;}.cls-36{fill:#f4ae2d;}.cls-37{fill:#c8ddf7;}.cls-38,.cls-39{stroke-width:0.29px;}.cls-40{fill:url(#linear-gradient-5);}</style><linearGradient id="linear-gradient" x1="372.37" y1="90.11" x2="394.92" y2="90.11" gradientTransform="translate(357.1 -303.09) rotate(72.92)" gradientUnits="userSpaceOnUse"><stop offset="0" stop-color="#e59e03"/><stop offset="0" stop-color="#ff7300"/><stop offset="0.08" stop-color="#ff7409"/><stop offset="0.21" stop-color="#fe7623"/><stop offset="0.38" stop-color="#fc7a4c"/><stop offset="0.59" stop-color="#fa8086"/><stop offset="0.81" stop-color="#f886cf"/><stop offset="0.89" stop-color="#f789ec"/><stop offset="0.95" stop-color="#e5c500"/></linearGradient><linearGradient id="linear-gradient-2" x1="16.38" y1="249.82" x2="484.69" y2="249.82" gradientTransform="matrix(1, 0, 0, 1, 0, 0)" xlink:href="#linear-gradient"/><linearGradient id="linear-gradient-3" x1="323.48" y1="123.07" x2="367.9" y2="123.07" gradientTransform="translate(328.13 -243.45) rotate(67.66)" xlink:href="#linear-gradient"/><linearGradient id="linear-gradient-4" x1="42.08" y1="254.47" x2="69.05" y2="254.47" gradientTransform="matrix(1, 0, 0, 1, 0, 0)" xlink:href="#linear-gradient"/><linearGradient id="linear-gradient-5" x1="410.68" y1="38.62" x2="476.47" y2="38.62" gradientTransform="matrix(1, 0, 0, 1, 0, 0)" xlink:href="#linear-gradient"/></defs><g id="OBJECTS"><circle class="cls-1" cx="383.65" cy="90.11" r="11.27" transform="translate(168.46 411.84) rotate(-72.92)"/><path class="cls-2" d="M482.75,354.45a43.48,43.48,0,0,0-2.76-7.9c-9.09-19.63-30.67-25.26-46.5-36.78-6.75-4.92-12.18-12.33-12.68-20.67-.59-9.9,5.58-18.73,10.6-27.29,6.41-10.94,11.35-23,12.08-35.68s-3.2-25.95-12.36-34.71c-10.55-10.11-26.25-12.83-40.85-12.21-37.15,1.57-71.41,17.2-100.84-15-20.86-22.85-29.65-61.25-51.2-83.94-34.22-36-93.38-29.91-130.52,3.11-33.56,29.84-44.44,77.3-32.48,119.88,7.72,27.49,17,55.42-2.14,81.35-16.38,22.19-42.3,37-51.88,64-9.28,26.18-5.93,58.57,16.31,77.32C49,435.57,63.7,440.56,78.36,443.79l.32.07H376.32C423.25,436.79,497.63,414.37,482.75,354.45Z" transform="translate(-16.38 -18.53)"/><circle class="cls-3" cx="345.69" cy="123.07" r="22.21" transform="translate(84.07 377.5) rotate(-67.66)"/><path class="cls-4" d="M69.05,254.47A13.49,13.49,0,1,1,55.57,241,13.48,13.48,0,0,1,69.05,254.47Z" transform="translate(-16.38 -18.53)"/><path class="cls-5" d="M132.14,441.18c4.5.91,9,1.75,13.51,2.56h4.72Z" transform="translate(-16.38 -18.53)"/><path class="cls-6" d="M466,285.94a10.31,10.31,0,0,0-2.66-4.57l-2.1-1.62a10.35,10.35,0,0,0-5.23-1.42h-.52a10.64,10.64,0,0,0-10.36,10.37c.12.91.24,1.83.37,2.75a10.4,10.4,0,0,0,2.66,4.58l2.1,1.62a10.24,10.24,0,0,0,5.23,1.41H456a10.64,10.64,0,0,0,10.36-10.36C466.24,287.78,466.12,286.86,466,285.94Z" transform="translate(-16.38 -18.53)"/><rect class="cls-7" x="97.57" y="287.1" width="255.76" height="152.09" rx="9.79" transform="translate(-14.65 -19.61) rotate(0.27)"/><path class="cls-8" d="M227,290.16A1.17,1.17,0,1,1,225.8,289,1.17,1.17,0,0,1,227,290.16Z" transform="translate(-16.38 -18.53)"/><path class="cls-9" d="M371.9,440.08h0l-293.62-1.4h0A12.22,12.22,0,0,0,90.43,451l269.2,1.28A12.22,12.22,0,0,0,371.9,440.08Z" transform="translate(-16.38 -18.53)"/><path class="cls-10" d="M339.2,435,111,433.87a7.65,7.65,0,0,1-7.61-7.68l.6-126a7.65,7.65,0,0,1,7.68-7.61l228.19,1.09a7.65,7.65,0,0,1,7.61,7.68l-.6,126.05A7.65,7.65,0,0,1,339.2,435Z" transform="translate(-16.38 -18.53)"/><rect class="cls-11" x="403.4" y="155.03" width="8.38" height="33.04" transform="translate(219.66 560.61) rotate(-90)"/><rect class="cls-12" x="411.49" y="133.99" width="8.38" height="49.21" transform="translate(240.69 555.74) rotate(-90)"/><rect class="cls-13" x="422.64" y="109.88" width="8.38" height="71.52" transform="translate(264.81 553.94) rotate(-90)"/><rect class="cls-14" x="407" y="112.57" width="8.38" height="40.24" transform="translate(262.12 525.35) rotate(-90)"/><polyline class="cls-15" points="373.6 102.5 373.6 163.12 451.47 163.12"/><rect class="cls-16" x="399.87" y="175.24" width="50.78" height="4.78"/><rect class="cls-16" x="399.87" y="184.23" width="50.78" height="4.78"/><rect class="cls-16" x="399.87" y="193.21" width="50.78" height="4.8"/><rect class="cls-16" x="373.6" y="175.24" width="21.97" height="22.76"/><rect class="cls-16" x="373.6" y="202.19" width="77.05" height="4.78"/><rect class="cls-16" x="373.6" y="211.17" width="77.05" height="4.78"/><path class="cls-5" d="M290,68.86a24.46,24.46,0,0,0-4.53,1.36c.08.11.18.21.26.34a4,4,0,0,1-6.86,4.29,3.29,3.29,0,0,1-.21-.42,25.4,25.4,0,0,0-3.26,3.46c.14.06.28.1.42.17a4.05,4.05,0,1,1-4.23,6.86,25.09,25.09,0,0,0-1.1,4.66c.16,0,.33-.06.5-.07a4,4,0,1,1,.29,8.09,3.69,3.69,0,0,1-.58,0,24.12,24.12,0,0,0,1.38,4.64,3.87,3.87,0,0,1,.45-.35,4,4,0,0,1,4.3,6.86,4.77,4.77,0,0,1-.56.27,24.86,24.86,0,0,0,3.53,3.35,3.61,3.61,0,0,1,.24-.57,4,4,0,1,1,7.14,3.79,3.48,3.48,0,0,1-.36.55,24.27,24.27,0,0,0,4.76,1.12,4.48,4.48,0,0,1-.09-.64,4,4,0,0,1,8.09-.28,3.71,3.71,0,0,1-.05.67,24.7,24.7,0,0,0,4.69-1.42,5,5,0,0,1-.4-.51,4,4,0,1,1,6.86-4.29,3.14,3.14,0,0,1,.29.58,25,25,0,0,0,3.32-3.57,3.83,3.83,0,0,1-.56-.22,4,4,0,0,1,3.8-7.15,2.8,2.8,0,0,1,.49.33A23.88,23.88,0,0,0,319.14,96a3.19,3.19,0,0,1-.54.07,4,4,0,1,1-.29-8.08,3.2,3.2,0,0,1,.54,0,24.33,24.33,0,0,0-1.41-4.58,3.86,3.86,0,0,1-.38.3,4,4,0,1,1-4.3-6.86,2.53,2.53,0,0,1,.44-.21,25.48,25.48,0,0,0-3.48-3.25c-.06.14-.1.28-.17.41a4,4,0,1,1-7.15-3.79c.08-.14.17-.25.25-.38A24.35,24.35,0,0,0,298,68.6c0,.14,0,.27.06.41a4,4,0,0,1-8.09.29C290,69.15,290,69,290,68.86Zm4.18,7.57A16.49,16.49,0,1,1,278.33,93.5,16.49,16.49,0,0,1,294.22,76.43Z" transform="translate(-16.38 -18.53)"/><rect class="cls-16" x="34.67" y="88.53" width="113.48" height="94.2" transform="translate(210.65 25.68) rotate(90)"/><rect class="cls-14" x="47.06" y="105.14" width="10.51" height="24.86"/><rect class="cls-10" x="63.3" y="92.97" width="10.51" height="37.03"/><rect class="cls-12" x="79.55" y="76.18" width="10.51" height="53.83"/><rect class="cls-17" x="95.8" y="99.72" width="10.51" height="30.28"/><polyline class="cls-18" points="40.87 77.18 40.87 130.28 109.96 130.28"/><rect class="cls-10" x="39.51" y="140.4" width="70.73" height="6.77"/><rect class="cls-10" x="39.51" y="152.81" width="70.73" height="6.77"/><polygon class="cls-19" points="172.51 204.08 159.46 230.72 135.76 201.18 114.41 228.53 98.67 211.53 96.27 213.75 114.62 233.57 135.79 206.45 160.13 236.78 174.95 206.52 172.51 204.08"/><path class="cls-13" d="M180.55,252.28a4.2,4.2,0,1,0-4.19,4.2A4.19,4.19,0,0,0,180.55,252.28Z" transform="translate(-16.38 -18.53)"/><path class="cls-14" d="M194.41,222.62a4.2,4.2,0,1,0-4.19,4.2A4.18,4.18,0,0,0,194.41,222.62Z" transform="translate(-16.38 -18.53)"/><circle class="cls-8" cx="135.61" cy="204.09" r="4.2"/><circle class="cls-11" cx="115.02" cy="230.55" r="4.2"/><path class="cls-17" d="M119,232a4.2,4.2,0,1,0-4.19,4.2A4.2,4.2,0,0,0,119,232Z" transform="translate(-16.38 -18.53)"/><polyline class="cls-18" points="86.12 193.86 86.12 249.88 180.43 249.88"/><circle class="cls-20" cx="153.87" cy="387.58" r="32.39" transform="translate(-75.9 10.77) rotate(-9.12)"/><path class="cls-17" d="M153.1,388.08l-25.26-8.81a26.75,26.75,0,0,0,39,31.75Z" transform="translate(-16.38 -18.53)"/><path class="cls-16" d="M154.48,387.58l14,22.83a26.8,26.8,0,0,0,12.81-22.83Z" transform="translate(-16.38 -18.53)"/><path class="cls-10" d="M154.64,386.29l26.75-.37a26.73,26.73,0,0,0-8.65-19.32Z" transform="translate(-16.38 -18.53)"/><rect class="cls-8" x="99.99" y="315.98" width="74.98" height="4.15"/><rect class="cls-8" x="99.99" y="307.78" width="74.98" height="4.15"/><rect class="cls-8" x="99.99" y="299.58" width="74.98" height="4.15"/><rect class="cls-8" x="99.99" y="291.38" width="74.98" height="4.15"/><rect class="cls-8" x="99.99" y="323.59" width="74.98" height="4.15"/><rect class="cls-8" x="191.55" y="403.67" width="129.99" height="4.15"/><rect class="cls-8" x="191.55" y="395.47" width="129.99" height="4.15"/><rect class="cls-8" x="191.55" y="387.27" width="129.99" height="4.15"/><circle class="cls-16" cx="195.45" cy="108.17" r="31.32" transform="translate(-33.24 20.15) rotate(-10.84)"/><path class="cls-13" d="M194.71,108.66l-24.42-8.52a25.72,25.72,0,0,0-1.45,8.52A25.87,25.87,0,0,0,208,130.83Z" transform="translate(-16.38 -18.53)"/><path class="cls-14" d="M196.05,108.17l13.48,22.08a25.87,25.87,0,0,0,12.39-22.08Z" transform="translate(-16.38 -18.53)"/><path class="cls-10" d="M196.2,106.93l25.86-.36a25.83,25.83,0,0,0-8.36-18.69Z" transform="translate(-16.38 -18.53)"/><rect class="cls-16" x="191.32" y="126.67" width="165.99" height="250.51"/><rect class="cls-11" x="243.47" y="247.34" width="11.81" height="49.71"/><rect class="cls-13" x="294.2" y="223.01" width="11.81" height="74.04"/><rect class="cls-14" x="319.56" y="189.44" width="11.8" height="107.61"/><path class="cls-18" d="M232.69,261.9c25.41-6.64,71.84-31.13,92.87-54.57" transform="translate(-16.38 -18.53)"/><polygon class="cls-8" points="310.88 186.84 309.53 190.55 309 188.91 307.31 188.55 310.88 186.84"/><rect class="cls-10" x="268.84" y="236.51" width="11.8" height="60.55"/><rect class="cls-17" x="218.11" y="253.09" width="11.81" height="43.96"/><polyline class="cls-18" points="341.97 297.06 208.31 297.06 208.31 184.08"/><rect class="cls-10" x="208.33" y="144.28" width="135.28" height="8.15"/><rect class="cls-10" x="236.93" y="157.45" width="78.08" height="8.15"/><rect class="cls-10" x="208.31" y="307.51" width="135.32" height="7.49"/><rect class="cls-10" x="208.31" y="321.24" width="135.32" height="7.49"/><rect class="cls-10" x="208.31" y="334.98" width="135.32" height="7.49"/><rect class="cls-10" x="208.31" y="349.82" width="60.09" height="7.49"/><path class="cls-8" d="M374,451.73c2.14-.22,4.26-.63,6.4-.85,1.81-.19,3.62-.29,5.42-.56a15.6,15.6,0,0,0,3.82-.95c.77-.32.27-2.35.16-2.91a18.36,18.36,0,0,1-.2-4.19c-2.06,0-4.12-.08-6.17-.16a2.7,2.7,0,0,0-1.13.11,3.64,3.64,0,0,0-1.2,1c-1.62,1.66-3.73,2.56-5.71,3.62a10.63,10.63,0,0,0-5,4.58,1.22,1.22,0,0,0-.14.56C371.56,451.93,372.8,451.85,374,451.73Z" transform="translate(-16.38 -18.53)"/><path class="cls-21" d="M411,335l-.07-.08a9.74,9.74,0,0,0-10.08-3.21c-9.33,2.76-9.34,17.09-10.31,25.5q-1.53,13.34-3.19,26.66c-2.1,16.87-3.52,41.49-5.9,58.32a11.2,11.2,0,0,0,4.44,1.08c2.82.35,3.76.1,4.68-.61,2.75-15.31,9-38,12.14-53.16,1.65-8,2.86-11.86,4.61-19.83,1.3-5.95,1.8-12.09,3.39-18,.72-2.68,2.53-5.19,2.84-7.86A12.22,12.22,0,0,0,411,335Z" transform="translate(-16.38 -18.53)"/><line class="cls-22" x1="383.6" y1="382.9" x2="380.05" y2="382.1"/><line class="cls-22" x1="383.57" y1="382.89" x2="379.29" y2="384.87"/><path class="cls-8" d="M410.8,450.89l.15,0c.41,0,.82,0,1.23,0h.31l1.47.09c3.83.31,7.74,1,11.51,1.07a10.39,10.39,0,0,0,3.9-.47c3.08-1.21-.68-2.79-1.9-3.48a40.22,40.22,0,0,0-3.77-2,28.53,28.53,0,0,1-5-2.87,23.43,23.43,0,0,1-6.72.65C410.84,443.88,409.12,450.35,410.8,450.89Z" transform="translate(-16.38 -18.53)"/><path class="cls-23" d="M422.21,351.87c-.55-3.76-3.36-16.74-7.64-17.45a9.4,9.4,0,0,0-8.35,2.93,13.7,13.7,0,0,0-2.69,6.71c-.61,4.11-.32,8.48-.16,12.63.25,6.57,1.58,19,1.58,19s6.48,54.56,6,68c2.48,3.45,9.88.23,9.91-.16.87-10.6.85-34.58,1.05-42.78C422.15,391.91,423.47,360.65,422.21,351.87Z" transform="translate(-16.38 -18.53)"/><path class="cls-24" d="M404.54,372.34l-1.38-20" transform="translate(-16.38 -18.53)"/><path class="cls-25" d="M422.09,351.15c-.75-4.47-3.48-16.06-7.52-16.73a9.59,9.59,0,0,0-3.89.22,9.73,9.73,0,0,0-9.83-2.93c-6.47,1.91-8.46,9.39-9.39,16.6a26.9,26.9,0,0,0,11.75,4.29h0l.25,0,1.34.16.46,0q.78.07,1.56.12h.25l1.37,0h2A42.42,42.42,0,0,0,422.09,351.15Z" transform="translate(-16.38 -18.53)"/><path class="cls-26" d="M412.26,283.29c0,.37.07.75.09,1.11.08,1.44.15,2.87.23,4.31a38.79,38.79,0,0,1,.23,4.43c-.13,2.07-.57,4.05-2.5,5.06a4.61,4.61,0,0,1-3.83,0,4.29,4.29,0,0,1-2.5-2.09,6.59,6.59,0,0,1-.24-2.17c0-2.41,0-4.81.06-7.21a12.1,12.1,0,0,1,.61-4.64c.91-2,3.25-3.88,5.42-3C411.55,279.76,412.07,281.56,412.26,283.29Z" transform="translate(-16.38 -18.53)"/><path class="cls-27" d="M409.7,289a10.56,10.56,0,0,0,2.61-5.19c0-.19,0-.37-.05-.56-.19-1.73-.71-3.53-2.43-4.2-2.17-.86-4.51,1.06-5.42,3a12.1,12.1,0,0,0-.61,4.64c-.06,1.3-.06,2.6-.06,3.9A6,6,0,0,0,409.7,289Z" transform="translate(-16.38 -18.53)"/><path class="cls-19" d="M422,345.16,419,330.32,420,297c-.27,0,.14-3-.76-3.53-1.4-.89-5.88-1.52-6.45-1.67a4,4,0,0,1-2.18,4.14c-2.37,1.77-5.36,1.6-6.63-2.07a8.56,8.56,0,0,1-.28-1.94,28.93,28.93,0,0,0-4.64,1.17,4.5,4.5,0,0,0-3.06,4l-1.54,33.2-3.93,12.51C400.05,350.35,411,350.28,422,345.16Z" transform="translate(-16.38 -18.53)"/><path class="cls-28" d="M405.8,332.79a35.68,35.68,0,0,0,14.31-13.52" transform="translate(-16.38 -18.53)"/><path class="cls-28" d="M403.34,345.47a44.23,44.23,0,0,0,14.85-17.6" transform="translate(-16.38 -18.53)"/><path class="cls-28" d="M405.78,298.55a5.74,5.74,0,0,0,5.5-.12" transform="translate(-16.38 -18.53)"/><path class="cls-29" d="M393.09,297.69c-4.76,5.54-9.09,17.63-9.54,24.84a7.88,7.88,0,0,0,1.27,5.11,4.8,4.8,0,0,0,4.66,2c1.86-.38,3.17-2,4.11-3.67a59.73,59.73,0,0,0,4.35-12.33c.67-3.26,2.14-6.34,2.73-9.67.36-2.07,2.3-11.8-2.44-10.52a5.93,5.93,0,0,0-2.13,1.26A24,24,0,0,0,393.09,297.69Z" transform="translate(-16.38 -18.53)"/><path class="cls-29" d="M393.64,351.74a20.75,20.75,0,0,0,1.93.87c2.11-15.95,7.85-60.56,7.84-60.69a28.12,28.12,0,0,0-4.36,1.1,4.66,4.66,0,0,0-3.23,3.89l-1.39,19.22-1.91,18L388,347.69A22.25,22.25,0,0,0,393.64,351.74Z" transform="translate(-16.38 -18.53)"/><polygon class="cls-30" points="387.03 273.39 381.61 277.97 384.66 278.64 381.31 286.02 383.88 298.16 387.03 273.39"/><path class="cls-31" d="M397.92,299.35s-3,8-3.05,11.85c0,2.19-2.06,21.2-2.06,21.2" transform="translate(-16.38 -18.53)"/><path class="cls-29" d="M396.12,324.88a6.38,6.38,0,1,1-6.38-6.37A6.38,6.38,0,0,1,396.12,324.88Z" transform="translate(-16.38 -18.53)"/><path class="cls-31" d="M387.81,319.27a6.07,6.07,0,0,1,7.72,6.85" transform="translate(-16.38 -18.53)"/><path class="cls-31" d="M391.1,317.77a6.71,6.71,0,0,1,3,3.33" transform="translate(-16.38 -18.53)"/><path class="cls-29" d="M418.14,353.58c3.33-.75,4-1.23,7.17-2.57l-3.14-16.58-1.93-37.59c-.27,0,0-2.9-.91-3.46-1.32-.79-4.93-1.35-5.94-1.55v62.59C415,354.21,416.59,353.92,418.14,353.58Z" transform="translate(-16.38 -18.53)"/><path class="cls-29" d="M424,298.28c2.39,3.52,3.82,8.14,5.28,12.12s3.93,9.1,3.83,13.37a5.34,5.34,0,0,1-1.94,4.18,5.78,5.78,0,0,1-4.77.71c-4.78-1.14-6.11-5.22-7.61-9.28a56,56,0,0,1-3.39-15.69c-.12-2.16-.95-12.3,3.8-10.38a6.15,6.15,0,0,1,2,1.56A26.15,26.15,0,0,1,424,298.28Z" transform="translate(-16.38 -18.53)"/><path class="cls-31" d="M419.25,320.75l-2.31-8" transform="translate(-16.38 -18.53)"/><path class="cls-31" d="M417.86,316.23l-1.63-2.58" transform="translate(-16.38 -18.53)"/><polygon class="cls-30" points="397.01 273.29 401.82 278.51 398.7 278.8 401.12 286.53 397.06 298.26 397.01 273.29"/><path class="cls-29" d="M428.83,329.8,421.47,332a5.83,5.83,0,0,1-7.28-3.89h0a5.83,5.83,0,0,1,3.89-7.28l7.36-2.23a5.83,5.83,0,0,1,7.28,3.89h0A5.85,5.85,0,0,1,428.83,329.8Z" transform="translate(-16.38 -18.53)"/><path class="cls-28" d="M414.57,322.28l8.11-2.95c2.32-.84,4.83-1.42,7.21-.37" transform="translate(-16.38 -18.53)"/><rect class="cls-32" x="378.72" y="295.12" width="20.51" height="27.93"/><circle class="cls-26" cx="376.73" cy="307.92" r="5.11"/><path class="cls-26" d="M411.89,328.13a5.11,5.11,0,1,0,5.35-4.85A5.1,5.1,0,0,0,411.89,328.13Z" transform="translate(-16.38 -18.53)"/><path class="cls-27" d="M398.59,278.09a2.5,2.5,0,0,0,.29,1.1,1.64,1.64,0,0,0,3-.42,2.71,2.71,0,0,0,0-1.69c-.29-.89-1-1.62-2-1.13a2.36,2.36,0,0,0-1.17,1.42A2.16,2.16,0,0,0,398.59,278.09Z" transform="translate(-16.38 -18.53)"/><path class="cls-26" d="M403.37,269.76a12.54,12.54,0,0,1,7-1.25c3,.3,4.39,1.78,4.7,3.61.54,3.15.41,6.93-1,9.75-.23.47-.71,1.67-1,2.11a8,8,0,0,1-8.44,3.37c-2.48-.6-3.83-2.67-4.25-5.57-.07-.52-.09-2.21-.1-2.74C400.24,275.82,402,270.51,403.37,269.76Z" transform="translate(-16.38 -18.53)"/><path class="cls-8" d="M402.78,266.64a14.25,14.25,0,0,1,5.62-1.71,7.39,7.39,0,0,1,8.71,7.53c0,1.64-.8,5.35-2.67,6.08-2.27.9-2-1.71-1.75-3.33a12.24,12.24,0,0,0,.32-1.81,1.88,1.88,0,0,0-.75-1.63,2.74,2.74,0,0,0-1.3-.35c-1.56-.15-10.34.56-10.23-2.38a1.29,1.29,0,0,1,.22-.59A5.65,5.65,0,0,1,402.78,266.64Z" transform="translate(-16.38 -18.53)"/><path class="cls-22" d="M403.86,271.89a9.27,9.27,0,0,0,6.58-.88" transform="translate(-16.38 -18.53)"/><path class="cls-22" d="M414.82,267.16a3.71,3.71,0,0,0-3.09-2.64" transform="translate(-16.38 -18.53)"/><path class="cls-22" d="M416.11,267.15a.87.87,0,0,0-1.11.15" transform="translate(-16.38 -18.53)"/><path class="cls-8" d="M400.13,277.49c0,.11,0,.22.07.33a.56.56,0,0,0,.25-.14c1-1.82.42-4.53,1.95-6,.52-.52,1.31-.89,1.39-1.62a1.85,1.85,0,0,0-.22-.91,1,1,0,0,0-.29-.42.86.86,0,0,0-.65-.11c-3,.35-2.79,3.77-2.66,6A24.14,24.14,0,0,0,400.13,277.49Z" transform="translate(-16.38 -18.53)"/><path class="cls-26" d="M413.35,280.2a1.62,1.62,0,0,0,2.57.35,2.69,2.69,0,0,0,.62-1.42,3.11,3.11,0,0,0,0-1.39,1.94,1.94,0,0,0-1.28-1.23C413.24,275.84,412.44,278.89,413.35,280.2Z" transform="translate(-16.38 -18.53)"/><path class="cls-33" d="M402.18,274.59a3.34,3.34,0,0,1,1.54-.06" transform="translate(-16.38 -18.53)"/><path class="cls-33" d="M404.37,282.63a3.38,3.38,0,0,0,2.64.3" transform="translate(-16.38 -18.53)"/><path class="cls-33" d="M408.54,274.43a3.62,3.62,0,0,1,2.14.4" transform="translate(-16.38 -18.53)"/><path class="cls-8" d="M409.24,277.32a.66.66,0,1,1-.66-.65A.66.66,0,0,1,409.24,277.32Z" transform="translate(-16.38 -18.53)"/><path class="cls-8" d="M403.46,277a.66.66,0,1,1-.66-.66A.65.65,0,0,1,403.46,277Z" transform="translate(-16.38 -18.53)"/><path class="cls-33" d="M405.08,280.89c-.6-.1-1.46-.53-1.14-1.26a3,3,0,0,1,.36-.52,3.89,3.89,0,0,0,.74-1.79" transform="translate(-16.38 -18.53)"/><rect class="cls-11" x="62.35" y="306.84" width="20.51" height="27.93"/><circle class="cls-26" cx="60.35" cy="319.64" r="5.11"/><circle class="cls-26" cx="100.62" cy="340.1" r="5.11" transform="translate(-162.05 66.35) rotate(-27.5)"/><path class="cls-8" d="M58.51,467.35a23.35,23.35,0,0,0-1.41-4.66,12,12,0,0,1-2.62-2.38,3.54,3.54,0,0,0-1.16-1.18,2.28,2.28,0,0,0-1.13-.1c-2,.15-4.09.25-6.14.35a27.77,27.77,0,0,1-.35,5.07c-.11.58-.54,2.44-.2,3.22Z" transform="translate(-16.38 -18.53)"/><path class="cls-21" d="M72.18,351.57l-.07-.08a9.76,9.76,0,0,0-10.16-3c-9.26,3-8.91,17.32-9.67,25.75q-1.2,13.37-2.53,26.73c-1.67,16.92-2.48,41.57-4.44,58.45a11.2,11.2,0,0,0,4.46,1c2.83.28,3.76,0,4.67-.73,2.36-15.36,8.06-38.15,10.81-53.44,1.45-8,2.56-11.93,4.11-19.94,1.16-6,1.5-12.13,2.94-18.05.66-2.7,2.41-5.25,2.64-7.93A12.17,12.17,0,0,0,72.18,351.57Z" transform="translate(-16.38 -18.53)"/><line class="cls-22" x1="46.44" y1="399.72" x2="42.87" y2="399.01"/><line class="cls-22" x1="46.4" y1="399.71" x2="42.18" y2="401.8"/><path class="cls-8" d="M74.86,467.43a.76.76,0,0,0,.16,0h1.54l1.47,0c3.83.21,7.76.8,11.53.79a10.25,10.25,0,0,0,3.88-.58c3.06-1.28-.74-2.76-2-3.43a41.44,41.44,0,0,0-3.82-1.94,29.49,29.49,0,0,1-5.06-2.74,23.3,23.3,0,0,1-6.7.81C74.73,460.42,73.17,466.93,74.86,467.43Z" transform="translate(-16.38 -18.53)"/><path class="cls-29" d="M83.8,368.15c-.63-3.74-3.77-16.65-8.06-17.25A9.39,9.39,0,0,0,67.46,354a13.69,13.69,0,0,0-2.52,6.77c-.51,4.13-.11,8.49.15,12.63.42,6.56,2.06,18.94,2.06,18.94s7.84,54.38,7.69,67.85c2.57,3.38,9.89,0,9.91-.41.6-10.62,0-34.59,0-42.8C84.74,408.19,85.29,376.9,83.8,368.15Z" transform="translate(-16.38 -18.53)"/><path class="cls-24" d="M66.65,389.06q-.95-10-1.88-19.94" transform="translate(-16.38 -18.53)"/><path class="cls-25" d="M58.09,373.52a58.28,58.28,0,0,0,9.07,1.73A39.38,39.38,0,0,0,84.31,373c-.13-2-.3-3.64-.51-4.86-.63-3.74-3.77-16.65-8.06-17.25a9.49,9.49,0,0,0-3.89.32,9.73,9.73,0,0,0-9.9-2.69c-8.19,2.65-8.86,14.18-9.44,22.63A19.42,19.42,0,0,0,58.09,373.52Z" transform="translate(-16.38 -18.53)"/><path class="cls-26" d="M74.31,299.17c0,.37.06.75.08,1.11.08,1.44.16,2.88.23,4.31a38.8,38.8,0,0,1,.24,4.43c-.13,2.07-.57,4.05-2.5,5.06a4.6,4.6,0,0,1-3.84,0A4.26,4.26,0,0,1,66,312a6.33,6.33,0,0,1-.23-2.17c0-2.41-.05-4.81,0-7.21a11.91,11.91,0,0,1,.62-4.64c.91-2,3.25-3.88,5.42-3C73.59,295.64,74.11,297.44,74.31,299.17Z" transform="translate(-16.38 -18.53)"/><path class="cls-26" d="M79.54,296.69l0,0a2.46,2.46,0,0,0-.17-.22c-.37-.61-.64-1.31-1-1.95,0,0-.29.41-.32.48a3.86,3.86,0,0,0-.17.82,9.22,9.22,0,0,0-.07,1.74,1.15,1.15,0,0,0,.17.63c.31.41,1.38,0,1.81,0,.13,0,.3-.06.35-.19C80.35,297.55,79.78,297,79.54,296.69Z" transform="translate(-16.38 -18.53)"/><path class="cls-26" d="M65.34,288.36a11.73,11.73,0,0,1,6.56-2c3,0,4.66,1.22,5.35,2.95a22.88,22.88,0,0,1,1.49,8.35,32,32,0,0,1-.29,4.26,2.53,2.53,0,0,1-2.17,2.47,26,26,0,0,1-3.93.34,12.79,12.79,0,0,1-3.71-.21c-1.93-.59-3-2.5-3.7-4.28-.18-.49-.56-2.12-.67-2.62C63.55,294.52,64.13,289.23,65.34,288.36Z" transform="translate(-16.38 -18.53)"/><path class="cls-22" d="M76.19,284.5a3.73,3.73,0,0,0-3.38-2.25" transform="translate(-16.38 -18.53)"/><path class="cls-22" d="M77.46,284.34a.86.86,0,0,0-1.08.28" transform="translate(-16.38 -18.53)"/><path class="cls-8" d="M72.06,301.83a.54.54,0,0,0,.28-.15c.19-.25.15-1.1.19-1.42.11-.91.23-1.81.35-2.72.07-.58,0-1.06.48-1.42a2.52,2.52,0,0,1,1.5-.45c1.88,0,2.36.21,2.08-1.81a9,9,0,0,1-.17-2.93,2,2,0,0,1,.63-1.16c.59-.67,1.23-.9,1.38-1.66a7.31,7.31,0,0,0-9.24-5.06,14.07,14.07,0,0,0-5.38,2.35,5.58,5.58,0,0,0-1.6,2,1.26,1.26,0,0,0-.15.62,1.17,1.17,0,0,0,.13.46c-1.16,1.77-.45,4.12-.1,6a18.11,18.11,0,0,0,1.18,3.88c.27.63.56,1.24.89,1.84.13.24.76,1.69.95,1.7a50.32,50.32,0,0,0,5.76-.06A6.28,6.28,0,0,0,72.06,301.83Z" transform="translate(-16.38 -18.53)"/><path class="cls-26" d="M73.68,297.56a1.62,1.62,0,0,0,2.59,0,2.58,2.58,0,0,0,.45-1.48,2.94,2.94,0,0,0-.19-1.38,1.9,1.9,0,0,0-1.41-1.07C73.06,293.24,72.63,296.37,73.68,297.56Z" transform="translate(-16.38 -18.53)"/><path class="cls-33" d="M74.55,295a.47.47,0,0,1,.65-.28,1.14,1.14,0,0,1,.52.62,4,4,0,0,1,.32,1.33.46.46,0,1,0-.3.88" transform="translate(-16.38 -18.53)"/><path class="cls-33" d="M77.37,292.23a3.3,3.3,0,0,1,1.52-.23" transform="translate(-16.38 -18.53)"/><path class="cls-8" d="M78.93,294.5a.66.66,0,1,1-.73-.58A.67.67,0,0,1,78.93,294.5Z" transform="translate(-16.38 -18.53)"/><path class="cls-33" d="M77.4,300.1c.24,0,.77-.07,1-.1" transform="translate(-16.38 -18.53)"/><path class="cls-34" d="M59.33,347.23H53a6.47,6.47,0,0,1-6.47-6.47h0A6.47,6.47,0,0,1,53,334.29h6.29a6.47,6.47,0,0,1,6.47,6.47h0A6.47,6.47,0,0,1,59.33,347.23Z" transform="translate(-16.38 -18.53)"/><path class="cls-21" d="M55.81,313.58c-4.76,5.53-9.09,17.62-9.54,24.83a7.82,7.82,0,0,0,1.27,5.11,4.78,4.78,0,0,0,4.66,2c1.86-.38,3.17-2,4.11-3.67a60.92,60.92,0,0,0,4.35-12.33c.67-3.26,2.14-6.34,2.72-9.67.37-2.07,2.31-11.8-2.43-10.52a6,6,0,0,0-2.14,1.26A24,24,0,0,0,55.81,313.58Z" transform="translate(-16.38 -18.53)"/><polygon class="cls-19" points="47.36 290.08 49.13 287.28 58.62 286.99 60.9 290.23 47.36 290.08"/><path class="cls-29" d="M84.21,350.32l-1.92-37.59c-.27,0,0-2.91-.91-3.47-1.32-.79-4.93-1.35-5.94-1.55l-10,.09a27.57,27.57,0,0,0-4.36,1.1,4.69,4.69,0,0,0-3.24,3.89L56.47,332l-1.91,18-4.5,13.58a22.59,22.59,0,0,0,5.63,4.06c.63.32,1.28.6,1.93.87,0,0,9.22,3.71,17.82,1.8,1.61-.21,3.2-.49,4.75-.84,3.33-.75,4-1.23,7.17-2.57Z" transform="translate(-16.38 -18.53)"/><path class="cls-29" d="M96.05,347.23H89.76a6.47,6.47,0,0,1-6.47-6.47h0a6.47,6.47,0,0,1,6.47-6.47h6.29a6.47,6.47,0,0,1,6.47,6.47h0A6.47,6.47,0,0,1,96.05,347.23Z" transform="translate(-16.38 -18.53)"/><path class="cls-29" d="M86.07,314.16c2.39,3.52,3.81,8.15,5.28,12.13s3.92,9.09,3.83,13.36a5.35,5.35,0,0,1-2,4.18,5.72,5.72,0,0,1-4.76.71c-4.79-1.13-6.12-5.22-7.61-9.27a55.65,55.65,0,0,1-3.39-15.7c-.12-2.16-1-12.3,3.8-10.38a6.35,6.35,0,0,1,2,1.56A27,27,0,0,1,86.07,314.16Z" transform="translate(-16.38 -18.53)"/><path class="cls-31" d="M83.89,341.56A58.17,58.17,0,0,1,79,328.67" transform="translate(-16.38 -18.53)"/><path class="cls-31" d="M79.9,332.11l-1.62-2.58" transform="translate(-16.38 -18.53)"/><path class="cls-21" d="M338.5,367.37c-8.73,1.73-9,11.76-8.21,18.94,1.6,15.17,6,51.07,6,51.07l8.39,44.05,5.87.33-3.12-44.57s1.49-32.48,3-43.79C352.84,377.56,350.1,365.08,338.5,367.37Z" transform="translate(-16.38 -18.53)"/><path class="cls-17" d="M350.92,480.27a23.54,23.54,0,0,1-6.33,0h0a1.32,1.32,0,0,0-1.28.59c-.17.26-.33.51-.49.71a5.8,5.8,0,0,1-3.36,2l-.13.06c-1.59.2-3.05,1-3.23,2.53h14.67A10.48,10.48,0,0,0,350.92,480.27Z" transform="translate(-16.38 -18.53)"/><rect class="cls-8" x="319.7" y="467.37" width="14.95" height="1.93"/><path class="cls-23" d="M340,367.63c-8.88-.51-11.62,9.15-12.67,16.29-2.24,15.08-5.9,51.1-5.9,51.1l3.23,46.46,6.13-.24,3.42-46s6.57-28.87,10.84-39.45C351.38,381.08,351.84,368.31,340,367.63Z" transform="translate(-16.38 -18.53)"/><path class="cls-17" d="M331.33,480.27a23.54,23.54,0,0,1-6.33,0,2.59,2.59,0,0,0-.92,0,2.73,2.73,0,0,0-.75.36,25.52,25.52,0,0,1-8,2.8c-1.49.27-3.09.43-4.27,1.37a1.75,1.75,0,0,0-.73,1.4h20.87A10.57,10.57,0,0,0,331.33,480.27Z" transform="translate(-16.38 -18.53)"/><rect class="cls-8" x="293.44" y="467.37" width="21.31" height="1.93"/><path class="cls-26" d="M341.14,319.13a11.88,11.88,0,0,0-.21-3,7.79,7.79,0,0,0,4.56.13,13.18,13.18,0,0,0,2.16-.83c.25-.11.7-.48,1.11-.71-.91,3.35-.84,6.85,1.24,9.73a11.49,11.49,0,0,1-5.65,2.4c-1.75.3-5.94.58-4.94-2.37.33-1,1-1.71,1.32-2.71A11.89,11.89,0,0,0,341.14,319.13Z" transform="translate(-16.38 -18.53)"/><path class="cls-27" d="M345.2,316.35a7.76,7.76,0,0,1-4.27-.2,12.74,12.74,0,0,1-.2,5.64,2,2,0,0,1-.09.26l.52-.08A10.43,10.43,0,0,0,345.2,316.35Z" transform="translate(-16.38 -18.53)"/><path class="cls-26" d="M336.91,312.84a2.23,2.23,0,0,0,.36.05c.37,0,.32-.45.3-.71-.05-.71-.05-1.44-.17-2.14a8.25,8.25,0,0,0-.57.88l-.83,1.14a.58.58,0,0,0-.08.18c0,.15.13.26.27.33A3.25,3.25,0,0,0,336.91,312.84Z" transform="translate(-16.38 -18.53)"/><path class="cls-26" d="M350.11,312.56A11,11,0,0,0,351,308a7.8,7.8,0,0,0-1.7-4.74,6.91,6.91,0,0,0-6.74-2.26,6.63,6.63,0,0,0-1.77.71c-1.35.79-2.92,2.37-3.15,4,0,.36,0,.71,0,1.08-.1.55-.22,1.1-.31,1.65a16.89,16.89,0,0,0-.21,3.33,11,11,0,0,0,.73,3.83,5,5,0,0,0,2.32,2.52,5.79,5.79,0,0,0,5.85-.49A11.57,11.57,0,0,0,350.11,312.56Z" transform="translate(-16.38 -18.53)"/><path class="cls-35" d="M337.62,314.25l.76.34" transform="translate(-16.38 -18.53)"/><path class="cls-26" d="M315.11,336.3a1.93,1.93,0,0,1,1.24-1.45c.64-.22,1.74-.22,2-.87.1-.33.21-.45-.05-.67a1.62,1.62,0,0,0-1-.34,2.84,2.84,0,0,0-2.61,1.46c-.15.28-.38.65-.69.56a.5.5,0,0,1-.3-.32,3,3,0,0,1,.63-2.61,4.43,4.43,0,0,1,1.43-1.63,4.29,4.29,0,0,1,2.41-.33,9.19,9.19,0,0,1,4.8,1.23c.36.26.7.56,1.06.82a11.74,11.74,0,0,0,3.15,1.4c-.35,1.19-.69,2.37-1,3.55a.28.28,0,0,1-.09.16.27.27,0,0,1-.2,0c-2-.49-4.33-.9-6.35-1.22A14.8,14.8,0,0,0,315.11,336.3Z" transform="translate(-16.38 -18.53)"/><path class="cls-17" d="M339.49,336.7a32.11,32.11,0,0,0-3.33-1.34c-2-.68-4.09-1.24-6.09-1.77-.76-.2-3.67-.93-4.45-1-2.17,1.77-2.79,3-2.79,5.58,2.3,1.53,7.88,4.68,10.41,5.89a32.13,32.13,0,0,0,4.38,1.85,10.1,10.1,0,0,0,4.91.32,3.18,3.18,0,0,0,2-1.17,2.07,2.07,0,0,0,.24-1.22C344.72,341,342.65,338.2,339.49,336.7Z" transform="translate(-16.38 -18.53)"/><path class="cls-26" d="M301.64,348.68a6.06,6.06,0,0,1-.42-5.09,2.24,2.24,0,0,1,1.24-1.41,2,2,0,0,1,2,.84,9.13,9.13,0,0,1,1,2.12,10.06,10.06,0,0,0,1.26,2.18,5.46,5.46,0,0,1,1.34,2.24,2.19,2.19,0,0,1-.61,1.91C305.64,353.28,302.54,350.27,301.64,348.68Z" transform="translate(-16.38 -18.53)"/><polygon class="cls-36" points="306.03 329.03 294.89 334.43 280.15 321.05 291.29 315.65 306.03 329.03"/><polygon class="cls-19" points="304.21 328.47 294.64 333.11 281.91 321.55 291.48 316.92 304.21 328.47"/><polygon class="cls-37" points="292.93 319.36 284.98 323.21 284.2 322.51 292.15 318.66 292.93 319.36"/><polygon class="cls-37" points="296.99 323.05 289.04 326.9 288.26 326.2 296.21 322.34 296.99 323.05"/><polygon class="cls-37" points="298.34 324.27 290.38 328.12 289.61 327.42 297.56 323.56 298.34 324.27"/><polygon class="cls-37" points="299.68 325.49 291.73 329.34 290.95 328.64 298.91 324.79 299.68 325.49"/><polygon class="cls-37" points="301.03 326.71 293.08 330.56 292.3 329.86 300.25 326.01 301.03 326.71"/><polygon class="cls-37" points="302.37 327.93 294.42 331.79 293.65 331.08 301.6 327.23 302.37 327.93"/><polygon class="cls-8" points="291 318 284.32 321.24 281.47 318.66 288.16 315.42 291 318"/><path class="cls-26" d="M302.8,347.46a4,4,0,0,0-.31.41c-.84,1.35.79,2.61,1.83,3.34,2.35,1.66,5.23,2.45,8,3.25,1.55.45,6-.65,4.78-3.08-.84-1.65-3.34-2.6-5-3s-3.16-1-3.8-2.75c-.28-.77-.39-1.59-.64-2.37a1.12,1.12,0,0,0-.29-.52.43.43,0,0,0-.55-.06.61.61,0,0,0-.17.29c-.48,1.33.38,2.31-1.26,3.09-.54.26-1.14.4-1.67.7A3.4,3.4,0,0,0,302.8,347.46Z" transform="translate(-16.38 -18.53)"/><path class="cls-17" d="M352.13,380.17l.66-.3c1.59-.81,2.13-2.88,2.29-4.71.36-4.19-1-8.14-.81-12.57.17-4.69,1.27-9.51,1.93-14.56a40.39,40.39,0,0,0-.19-13.69c-.74-3.39-1.75-7.15-3.82-9.8-1-1.28-2.81-1.79-4.21-2.13a10.08,10.08,0,0,0-5.31.15,12.31,12.31,0,0,0-6,4.19c-1.23,1.55-1.84,4.17-2.47,6.13a72.91,72.91,0,0,0-2.92,13.43c-.55,4.64.12,3.15-.12,7.71s1.08,8.2-1.26,12c-1.24,2-2.81,3.75-3.59,5.92s-.52,4.92,1.29,6.31c-.11.81-.23,1.61-.3,2.42,3.62,1.76,8.43,2.14,12.31,2.5a62.32,62.32,0,0,0,10.67,0,7.88,7.88,0,0,0,1.83-.21Z" transform="translate(-16.38 -18.53)"/><path class="cls-38" d="M351.92,380.23a48.87,48.87,0,0,1-15.31-.68" transform="translate(-16.38 -18.53)"/><path class="cls-17" d="M341.42,337.28a3.29,3.29,0,0,0-1-1.26,2.81,2.81,0,0,0-1.68-.39c-2.55.11-4.57,2.2-5.93,4.35s-2.41,4.6-4.35,6.25c-3.38,2.89-14.79,2.07-18.58,1.22A4.06,4.06,0,0,0,306.8,353c5.08,2.23,20.39,10.38,25.94,7.74a11.65,11.65,0,0,0,4.56-4.34,36.48,36.48,0,0,0,1.85-3.27,31.73,31.73,0,0,0,3.06-7.7A12.21,12.21,0,0,0,341.42,337.28Z" transform="translate(-16.38 -18.53)"/><path class="cls-17" d="M343.67,328.11a5.36,5.36,0,0,0-6.63-.71c-1.2.75-1.8,2.29-2.42,3.52a33.81,33.81,0,0,0-1.92,4.66c-.55,1.66-1,3.35-1.47,5-.84,2.73-1.93,5.38-2.55,8.16a14.45,14.45,0,0,0,.28,8.42c1.5,3.79,6.48,1.78,8.7-.33,1.92-1.81,2.83-4.41,3.69-6.91s1.71-5,2.56-7.52a29.24,29.24,0,0,0,1.7-7.62C345.75,332.28,345.31,329.85,343.67,328.11Z" transform="translate(-16.38 -18.53)"/><path class="cls-39" d="M330.08,345c.93-5.6,3.61-12.17,6.26-17.19" transform="translate(-16.38 -18.53)"/><path class="cls-38" d="M345.4,339.09q-1.65,4.41-3.28,8.83c-.79,2.12-1.54,4.82-3,6.56a34.58,34.58,0,0,1-4.68,5.07,6.85,6.85,0,0,1-5.51,1.58" transform="translate(-16.38 -18.53)"/><path class="cls-39" d="M346.59,339.87a6.09,6.09,0,0,0-2.35,2.4" transform="translate(-16.38 -18.53)"/><path class="cls-8" d="M312.29,338.59l-1.31.71.67-1.34,7.92-8.2a.44.44,0,0,1,.63,0h0a.45.45,0,0,1,0,.64Z" transform="translate(-16.38 -18.53)"/><path class="cls-8" d="M337.93,310.87a7.61,7.61,0,0,1-1.18-1.16c-2.2-2.76-.77-5.81,1-8.27a10.71,10.71,0,0,1,9-4.05,7.45,7.45,0,0,1,5,2.07,4.43,4.43,0,0,1,1.27,2.18c.05.26.24,2.31-.18,2.35,3.24-.32,3.08,6.74,3.05,8.67l-.24,14.81c0,1.78-.1,3.7-1.21,5.1a4.89,4.89,0,0,1-4.75,1.57,7.3,7.3,0,0,1-4.27-2.87,8.87,8.87,0,0,1-2-4.5c0-1.73.2-3.51.2-5.25,0-3-.6-6.24-2.74-8.38A35.81,35.81,0,0,0,337.93,310.87Z" transform="translate(-16.38 -18.53)"/><rect class="cls-19" x="404.11" y="7.95" width="25.43" height="24.88"/><path class="cls-40" d="M429.62,18.71c-10,1.51-17.56,8.68-18.79,17.81-1.3,9.84,5.93,19.08,17.05,21.76a33.49,33.49,0,0,0,10.76,0c6.81-1.65,12.15-5.59,15.07-11.15a16.71,16.71,0,0,0,2-8.48,18.33,18.33,0,0,0-7-14.59,24.24,24.24,0,0,0-12-5.33A34.47,34.47,0,0,0,429.62,18.71Zm1.25,11.11a12.65,12.65,0,0,1,1.77,3.29c0,.21-.62.28-2.21.28h-2.2v3.07h5.34l.14.68a7.68,7.68,0,0,1,0,3l-.14.68H428.2l.08,1.58.07,1.59,2.15.07c2.11.07,2.16.07,2,.55a13.56,13.56,0,0,1-1.76,3l-.62.84h-6.78V28.79h6.81Zm7.94-.4c6.79,2.33,9.26,9.56,5.15,14.9a10.89,10.89,0,0,1-2.33,2.13,11.53,11.53,0,0,1-6.72,2,10.88,10.88,0,0,1-2.52,0,10.15,10.15,0,0,1,.69-1.29c.36-.62.85-1.56,1.1-2.06.34-.79.51-1,1.32-1.06a6.22,6.22,0,0,0,3.65-1.55c2.82-2.5,2.28-6.53-1.12-8.37a6.44,6.44,0,0,0-2-.7c-.81,0-1.64-.35-1.64-.68a11.75,11.75,0,0,0-1-2,18,18,0,0,1-1-1.88,13.91,13.91,0,0,1,2.52,0A15,15,0,0,1,438.81,29.42Z" transform="translate(-16.38 -18.53)"/></g></svg>